<svg width="100" height="47" viewBox="0 0 100 47" fill="none" xmlns="http://www.w3.org/2000/svg">
<path d="M18.7356 25.2166H52.0693V29.5324H18.7356V25.2166Z" fill="#3353FF"/>
<path d="M18.7356 33.4412H52.0693V37.7572H18.7356V33.4412Z" fill="#3353FF"/>
<path d="M18.7356 41.6914H52.0693V45.9819H18.7356V41.6914Z" fill="#3353FF"/>
<path d="M4.00558 10.8569C3.05185 10.3475 2.21927 9.63822 1.56467 8.7777C0.917385 7.89648 0.582158 6.82474 0.611951 5.73177C0.589934 4.62876 0.951224 3.55227 1.63421 2.68588C2.37949 1.77813 3.35796 1.09055 4.46455 0.696988C5.76847 0.216127 7.15004 -0.0196351 8.53965 0.00157585C9.88944 -0.0226679 11.2297 0.233056 12.4757 0.75262C13.5663 1.20564 14.5049 1.96082 15.1808 2.92926C15.8507 3.93445 16.1933 5.12229 16.1614 6.32983H10.9875C11.0018 6.02589 10.9503 5.72245 10.8362 5.44034C10.7222 5.15824 10.5484 4.90417 10.3269 4.6956C9.88651 4.29225 9.24904 4.09059 8.4145 4.09059C7.92638 4.07891 7.44043 4.15912 6.98195 4.32703C6.63174 4.45091 6.32007 4.66432 6.07793 4.94603C5.88079 5.18217 5.77253 5.47987 5.77194 5.78748C5.77194 6.29745 6.06633 6.73324 6.65511 7.09484C7.51254 7.57251 8.4197 7.95495 9.36027 8.23534C11.5946 8.95851 13.2845 9.85792 14.4298 10.9335C14.9928 11.4578 15.4373 12.0963 15.7335 12.8063C16.0298 13.5163 16.1709 14.2813 16.1474 15.0503C16.1801 16.1663 15.8534 17.2632 15.2156 18.1796C14.5495 19.0759 13.6358 19.7576 12.5869 20.1407C11.3099 20.611 9.95591 20.8375 8.59531 20.8083C7.16372 20.8192 5.74236 20.567 4.40195 20.0642C3.14473 19.6018 2.04329 18.7943 1.22393 17.7345C0.407977 16.6775 0 15.3516 0 13.7568H5.21559C5.18567 14.3718 5.31249 14.9844 5.58416 15.537C5.82678 15.9706 6.2203 16.2997 6.68985 16.4619C7.30463 16.6614 7.94925 16.7532 8.59531 16.7332C9.40193 16.7332 9.99774 16.5733 10.3825 16.2533C10.5627 16.1152 10.7086 15.9371 10.8087 15.7333C10.9088 15.5294 10.9605 15.3052 10.9597 15.0781C10.9714 14.7252 10.8847 14.3761 10.7093 14.0697C10.4552 13.7213 10.1182 13.4416 9.72884 13.2562C9.02951 12.8988 8.30143 12.6011 7.55219 12.366C6.32869 11.9661 5.14207 11.4613 4.00558 10.8569Z" fill="#3353FF"/>
<path d="M40.6398 20.5302H35.4382V16.7054L35.9389 6.41327L31.2797 20.5302H27.886L23.2268 6.41327L23.7414 16.7054V20.5302H18.5397V0.279869H25.3686L29.5828 13.7153L33.797 0.279869H40.6398V20.5302Z" fill="#3353FF"/>
<path d="M55.1041 17.1783H48.5951L47.5659 20.5302H41.9889L49.374 0.279869H54.2974L61.7245 20.5303H56.1334L55.1041 17.1783ZM53.8107 12.9779L51.8357 6.58011L49.8747 12.9779H53.8107Z" fill="#3353FF"/>
<path d="M66.4675 10.857C65.5138 10.3474 64.6812 9.63822 64.0266 8.7777C63.3793 7.89649 63.044 6.82474 63.0739 5.73177C63.0518 4.62876 63.4131 3.55226 64.0962 2.68588C64.8414 1.77813 65.8199 1.09055 66.9264 0.696988C68.2304 0.216143 69.6119 -0.0196191 71.0015 0.0015754C72.3514 -0.0226648 73.6915 0.23306 74.9376 0.752619C76.0283 1.20558 76.9668 1.96078 77.6428 2.92926C78.3127 3.93445 78.6552 5.12229 78.6232 6.32983H73.4494C73.4638 6.02589 73.4123 5.72242 73.2982 5.44032C73.1842 5.15821 73.0104 4.90414 72.7888 4.6956C72.3484 4.29225 71.7109 4.09059 70.8764 4.09059C70.3883 4.07893 69.9024 4.15914 69.4439 4.32703C69.0936 4.45096 68.782 4.66437 68.5398 4.94604C68.3427 5.18217 68.2344 5.47987 68.2338 5.78748C68.2338 6.29745 68.5283 6.73324 69.117 7.09484C69.9744 7.57247 70.8816 7.9549 71.8221 8.23534C74.0568 8.95851 75.7466 9.85792 76.8917 10.9335C77.4548 11.4578 77.8993 12.0963 78.1955 12.8063C78.4917 13.5163 78.6328 14.2813 78.6094 15.0503C78.642 16.1663 78.3154 17.2633 77.6775 18.1796C77.0115 19.0759 76.0977 19.7576 75.0488 20.1407C73.7718 20.611 72.4178 20.8375 71.0572 20.8083C69.6257 20.8191 68.2043 20.567 66.8639 20.0642C65.6066 19.6017 64.5052 18.7943 63.6858 17.7345C62.8698 16.6775 62.4618 15.3516 62.4618 13.7568H67.6774C67.6475 14.3718 67.7743 14.9844 68.046 15.537C68.2887 15.9705 68.6822 16.2997 69.1516 16.4619C69.7664 16.6614 70.4111 16.7532 71.0571 16.7332C71.8638 16.7332 72.4595 16.5733 72.8443 16.2533C73.0246 16.1152 73.1705 15.9372 73.2707 15.7334C73.3708 15.5295 73.4226 15.3053 73.4217 15.0781C73.4334 14.7252 73.3467 14.3761 73.1713 14.0697C72.9173 13.7213 72.5802 13.4416 72.1909 13.2562C71.4915 12.8989 70.7635 12.6011 70.0143 12.366C68.7907 11.9661 67.604 11.4613 66.4675 10.857Z" fill="#3353FF"/>
<path d="M98.1224 0.279869V20.5303H92.9489V12.3244H86.1894V20.5302H81.0016V0.279869H86.1894V8.13789H92.9489V0.279869H98.1224Z" fill="#3353FF"/>
<path d="M11.8253 26.4322C13.2871 27.2792 14.4845 28.5161 15.2836 30.0046C16.1322 31.59 16.5625 33.3655 16.5339 35.1635V35.9493C16.5632 37.7443 16.1354 39.5172 15.2907 41.1013C14.4981 42.5832 13.3111 43.8169 11.8611 44.6664C10.3694 45.533 8.67016 45.9777 6.94515 45.9526H0V25.1459H6.81654C8.57142 25.1168 10.3017 25.5611 11.8253 26.4322ZM11.0751 35.1351C11.0751 33.2677 10.7131 31.8553 9.98894 30.898C9.26479 29.9407 8.20734 29.4619 6.81654 29.4619H5.33037V41.6514H6.94512C8.26931 41.6514 9.28877 41.175 10.0034 40.2221C10.7178 39.2697 11.075 37.8454 11.0751 35.9494V35.1351Z" fill="#3353FF"/>
<path d="M68.235 41.6588V45.9599H54.3309V25.1532H59.6614V41.6588H68.235Z" fill="#3353FF"/>
<path d="M82.4265 29.4691H76.2244V45.9599H70.8799V29.4691H64.8351V25.1532H82.4265V29.4691Z" fill="#3353FF"/>
<path d="M93.1207 42.516H86.4333L85.3755 45.9599H79.6451L87.233 25.1532H92.2917L99.9228 45.9599H94.1785L93.1207 42.516ZM92.3118 38.2004L90.2824 31.6269L88.2682 38.2004H92.3118Z" fill="#3353FF"/>
<path d="M96.0411 25.0611C96.4132 25.0611 96.7561 25.1558 97.0704 25.3453C97.3872 25.5328 97.637 25.791 97.8198 26.1201C98.005 26.4474 98.0972 26.809 98.0972 27.205C98.0972 27.6011 98.005 27.9637 97.8198 28.2928C97.637 28.6219 97.3872 28.8811 97.0704 29.0706C96.7561 29.2599 96.4132 29.3546 96.0411 29.3546C95.6664 29.3546 95.3227 29.2599 95.0075 29.0706C94.6957 28.8811 94.4468 28.6228 94.2615 28.2956C94.0779 27.9666 93.9866 27.603 93.9866 27.205C93.9866 26.807 94.0779 26.4444 94.2615 26.1173C94.4468 25.7901 94.6957 25.5328 95.0075 25.3453C95.3227 25.1558 95.6664 25.0611 96.0411 25.0611ZM96.0411 28.9959C96.3495 28.9959 96.6328 28.9175 96.891 28.7606C97.1517 28.6018 97.3579 28.3856 97.5105 28.112C97.663 27.8383 97.7385 27.536 97.7385 27.205C97.7385 26.874 97.663 26.5727 97.5105 26.3009C97.3579 26.0273 97.1517 25.8121 96.891 25.6552C96.6328 25.4983 96.3495 25.4199 96.0411 25.4199C95.7301 25.4199 95.4451 25.4983 95.1844 25.6552C94.9262 25.8121 94.7209 26.0273 94.5683 26.3009C94.4157 26.5727 94.3395 26.874 94.3395 27.205C94.3395 27.536 94.4157 27.8383 94.5683 28.112C94.7209 28.3856 94.9271 28.6018 95.1869 28.7606C95.4476 28.9175 95.7318 28.9959 96.0411 28.9959ZM96.9321 27.98C96.9321 28.1483 96.948 28.2698 96.9807 28.3444V28.3904H96.5323C96.5071 28.3253 96.4945 28.1875 96.4945 27.977V27.822C96.4945 27.6843 96.4627 27.5839 96.3998 27.5207C96.3361 27.4557 96.2297 27.4231 96.0813 27.4231H95.6245V28.3904H95.1869V25.9508H96C96.2917 25.9508 96.5205 26.0178 96.689 26.1517C96.8566 26.2837 96.9405 26.4712 96.9405 26.7142C96.9405 26.9189 96.8424 27.0778 96.6454 27.1907C96.8365 27.3054 96.9321 27.515 96.9321 27.8192V27.98ZM95.9832 27.0386C96.1316 27.0405 96.2556 27.0127 96.3562 26.9553C96.456 26.896 96.5063 26.8128 96.5063 26.7056C96.5063 26.6119 96.4903 26.5382 96.4577 26.4847C96.4266 26.4311 96.3747 26.3928 96.3009 26.3698C96.228 26.3449 96.1274 26.3325 96 26.3325H95.6245V27.0386H95.9832Z" fill="#3353FF"/>
</svg>
