<svg width="2800" height="2800" viewBox="0 0 2800 2800" fill="none" xmlns="http://www.w3.org/2000/svg">
<g clip-path="url(#clip0_6_2)">
<circle cx="1400" cy="1400" r="1400" fill="white"/>
<path fill-rule="evenodd" clip-rule="evenodd" d="M816.724 662.363C806.646 664.036 796.582 665.722 785.674 665.722C773.923 665.722 761.343 664.036 749.592 662.363C754.624 713.555 755.454 790.764 755.454 899.865C755.454 1020.72 751.265 1166.76 604.396 1166.76C467.604 1166.76 440.743 1083.66 440.743 935.96C440.743 833.564 442.416 735.383 450.821 662.363C434.868 664.036 418.085 665.722 402.145 665.722C385.362 665.722 357.659 664.036 340.876 662.363C343.392 697.615 352.614 765.589 352.614 849.517V999.745C352.614 1147.45 436.541 1212.07 580.051 1212.07C725.235 1212.07 804.13 1132.35 804.96 973.728C805.816 850.347 810.848 721.103 816.724 662.363ZM1320.27 667.395C1310.2 669.911 1300.13 671.597 1290.06 671.597C1279.99 671.597 1269.91 669.911 1259.84 667.395C1265.71 744.604 1265.71 925.04 1265.71 1055.96C1160.81 946.855 1019.8 793.28 901.481 663.193C894.763 663.193 886.371 664.023 880.496 664.023C874.621 664.023 865.386 663.193 860.354 663.193C862.027 698.445 863.713 759.701 863.713 843.628C863.713 973.715 852.806 1172.61 846.93 1202C857.838 1199.48 868.758 1197.79 879.653 1197.79C889.717 1197.79 900.638 1199.48 911.546 1202C908.186 1172.61 904.827 1068.55 904.827 973.715C904.827 904.054 905.657 847.831 907.343 804.187C1033.24 937.62 1159.96 1074.43 1272.42 1207.03C1277.45 1205.36 1285.01 1205.36 1290.04 1205.36C1295.92 1205.36 1303.47 1205.36 1309.34 1207.03C1308.5 1134.02 1307.67 1007.29 1309.34 924.196C1310.2 857.908 1315.23 742.931 1320.27 667.395ZM1742.41 1026.59C1742.41 858.751 1447 910.773 1447 781.529C1447 733.697 1489.82 695.929 1551.06 695.929C1611.47 695.929 1643.36 729.494 1658.49 765.589C1658.49 765.589 1667.71 741.245 1675.26 729.494C1685.33 714.385 1687.85 713.555 1703.8 700.961C1668.54 676.63 1618.18 657.318 1557.76 657.318C1444.49 657.318 1358.87 711.868 1358.87 808.389C1358.87 987.152 1644.22 927.556 1644.22 1057.64C1644.22 1110.51 1591.33 1166.74 1516.65 1166.74C1441.11 1166.74 1399.14 1126.46 1385.72 1085.33C1385.72 1085.33 1378.17 1109.68 1367.26 1124.79C1353 1144.09 1347.12 1146.6 1334.54 1157.52C1367.26 1181.85 1437.75 1214.58 1504.91 1214.58C1646.74 1214.58 1741.58 1159.2 1742.41 1026.59ZM2459.12 667.395C2448.2 669.911 2438.98 671.597 2428.9 671.597C2419.68 671.597 2409.61 669.911 2400.38 667.395C2386.96 732.011 2308.91 993.014 2278.69 1092.89H2277.02C2251 1001.42 2164.54 743.774 2146.94 667.395C2136.86 669.911 2126.8 671.597 2116.72 671.597C2105.8 671.597 2095.75 669.911 2085.66 667.395C2066.36 743.761 1985.81 984.623 1950.54 1092.89H1949.71C1905.22 940.149 1869.97 812.592 1836.41 667.395C1819.64 669.911 1803.68 671.597 1787.74 671.597C1770.95 671.597 1745.77 669.911 1728.14 667.395C1740.75 695.929 1786.9 822.656 1798.64 863.783C1839.78 995.543 1870.83 1118.07 1892.64 1202.01C1902.72 1200.32 1914.46 1197.81 1924.54 1197.81C1936.29 1197.81 1946.35 1200.32 1957.26 1202.01C1995.03 1074.44 2063.86 878.05 2092.38 789.934H2094.05C2140.57 926.022 2183.11 1063.44 2221.62 1202.01C2232.54 1200.32 2243.46 1197.81 2254.34 1197.81C2264.42 1197.81 2275.34 1200.32 2285.41 1202.01C2322.33 1075.27 2434.78 733.697 2459.12 667.395Z" fill="#0C0E0F"/>
<path fill-rule="evenodd" clip-rule="evenodd" d="M1208.66 2021.09C1216.21 2010.19 1201.94 2006.82 1196.91 2007.66C1198.58 2000.12 1208.66 1993.4 1216.21 1997.61C1222.09 1994.24 1227.13 1993.41 1229.64 2000.96C1232.16 2009.34 1239.71 2010.21 1246.42 2010.21C1260.69 2010.21 1267.41 2000.13 1266.57 1988.37C1266.57 1984.19 1269.08 1974.94 1272.44 1972.43C1274.12 1970.73 1258.18 1970.73 1254.82 1959C1248.1 1963.18 1232.16 1964.88 1227.13 1959C1229.64 1958.17 1239.71 1955.63 1237.19 1948.92C1233.83 1947.25 1231.32 1947.25 1227.13 1949.75C1227.96 1944.71 1236.36 1941.38 1234.67 1939.7C1234.67 1935.5 1227.96 1937.17 1225.44 1938C1227.96 1935.5 1229.64 1932.13 1231.32 1927.95C1227.96 1922.91 1222.92 1922.91 1216.21 1923.75C1217.89 1918.71 1227.13 1913.7 1225.44 1909.48C1222.92 1906.98 1219.56 1908.65 1216.21 1908.65C1217.89 1908.65 1217.89 1908.65 1219.56 1906.98C1220.41 1905.28 1222.92 1902.78 1224.6 1900.26C1224.6 1897.73 1219.56 1896.89 1215.36 1897.73C1220.41 1890.18 1225.43 1888.51 1234.66 1883.47C1236.35 1880.94 1234.66 1876.75 1232.15 1876.75C1227.11 1878.42 1222.91 1875.92 1222.08 1870.03C1220.41 1869.2 1220.41 1867.5 1220.41 1866.66C1222.92 1866.66 1227.13 1867.49 1227.96 1864.98C1231.32 1864.15 1231.32 1862.48 1227.96 1859.94C1225.44 1859.94 1222.08 1860.77 1219.56 1859.94C1216.21 1858.27 1219.56 1854.92 1215.36 1854.92C1206.14 1853.22 1204.45 1841.47 1209.49 1836.45C1209.49 1834.75 1217.88 1848.18 1220.41 1838.95C1219.56 1831.41 1213.69 1827.2 1206.98 1825.53C1215.36 1817.15 1227.13 1822.16 1229.64 1825.53C1232.16 1827.2 1234.67 1825.53 1236.36 1825.53C1236.36 1824.7 1238.88 1823.03 1237.19 1820.49C1236.36 1815.44 1232.16 1815.44 1227.96 1813.77C1236.35 1807.05 1248.94 1810.42 1253.13 1820.49C1255.65 1823.01 1264.04 1822.16 1262.36 1828.03C1262.36 1833.91 1257.32 1828.03 1257.32 1854.91C1258.16 1869.17 1267.4 1885.94 1269.91 1884.27C1271.59 1881.77 1274.1 1879.23 1274.1 1875.89C1274.1 1874.19 1272.43 1875.89 1271.59 1874.19C1274.1 1864.97 1276.62 1859.93 1280.81 1853.22H1274.93C1276.61 1848.18 1281.65 1843.17 1285 1838.95C1285.83 1837.28 1279.12 1836.45 1276.61 1834.75C1279.12 1832.25 1287.51 1825.53 1285.83 1824.7C1285 1822.17 1283.31 1822.17 1280.79 1819.65C1283.31 1817.15 1290.87 1815.45 1292.55 1808.73C1292.55 1807.06 1290.03 1804.56 1288.36 1804.56H1297.59C1302.13 1804.06 1306.73 1804.64 1311.01 1806.23C1311.86 1804.56 1311.01 1801.19 1309.34 1798.68C1317.73 1799.51 1320.25 1798.68 1321.09 1791.96C1322.76 1791.96 1323.61 1794.47 1326.12 1794.47C1334.52 1797 1340.39 1801.19 1346.27 1807.06C1352.98 1802.02 1362.21 1802.02 1369.77 1803.72C1372.28 1802.02 1373.13 1802.02 1376.49 1802.02C1369.77 1810.42 1384.05 1811.26 1390.77 1807.06C1397.48 1815.44 1397.48 1822.16 1390.77 1829.73C1394.95 1832.24 1398.31 1839.78 1399.99 1838.95C1409.22 1827.2 1428.52 1823.01 1426.02 1815.45C1423.49 1807.07 1418.44 1807.07 1410.06 1807.07C1411.74 1803.73 1420.98 1802.03 1428.53 1802.03V1792.81C1442.8 1795.31 1448.68 1811.28 1457.05 1813.78C1465.46 1815.45 1475.52 1810.43 1481.4 1803.73H1482.23C1481.4 1820.5 1498.18 1807.07 1503.23 1810.45C1504.06 1823.04 1478.05 1828.05 1477.21 1833.93C1474.68 1841.48 1478.04 1843.18 1479.71 1845.69C1478.04 1845.69 1470.49 1846.52 1470.49 1850.73C1474.67 1857.45 1486.43 1853.23 1488.93 1849.9C1491.46 1841.5 1486.43 1838.98 1484.76 1837.31C1487.26 1836.48 1489.8 1839.81 1493.98 1836.48C1493.98 1833.95 1493.15 1832.27 1491.48 1831.43C1498.19 1833.93 1501.53 1836.48 1510.77 1834.78C1514.12 1833.95 1512.45 1829.76 1512.45 1828.06C1517.49 1829.76 1522.53 1833.93 1526.71 1836.46C1531.76 1834.76 1530.92 1829.75 1528.41 1824.71C1533.43 1823.04 1538.47 1837.31 1545.18 1839.81C1547.69 1839.81 1550.23 1837.31 1550.23 1833.93C1551.9 1833.93 1551.9 1836.46 1551.9 1836.46C1559.45 1869.19 1571.2 1838.97 1576.25 1843.18C1576.25 1843.18 1576.25 1844.01 1575.42 1844.01C1573.74 1846.52 1572.89 1852.39 1572.89 1855.76C1577.93 1875.9 1558.62 1879.25 1558.62 1880.91C1559.45 1925.4 1514.98 1925.4 1489.82 1919.52C1496.53 1937.15 1514.96 1937.15 1516.66 1949.74C1517.49 1953.94 1519.17 1967.37 1522.54 1969.88C1529.26 1974.93 1540.98 1968.21 1546.86 1964.86C1556.93 1964.86 1556.93 1970.71 1558.61 1972.41C1568.68 1974.09 1576.23 1968.21 1584.62 1965.69C1588 1967.37 1579.58 1976.59 1582.95 1976.59C1585.45 1976.59 1585.45 1974.92 1587.15 1974.92C1587.98 1979.96 1584.62 1984.99 1585.45 1988.34C1585.45 1989.17 1587.98 1990.87 1589.66 1990.87C1589.66 1993.37 1585.45 1991.7 1582.94 1997.59C1585.44 2000.09 1591.32 1998.42 1592.16 1998.42C1589.66 2003.44 1580.44 2009.31 1580.44 2011.84C1580.44 2012.67 1585.45 2012.67 1587.15 2012.67C1584.62 2016.87 1577.91 2017.72 1577.91 2021.05C1577.91 2021.88 1580.44 2023.58 1580.44 2023.58C1577.91 2026.92 1568.68 2029.43 1569.51 2032.8C1572.86 2033.63 1575.39 2035.33 1577.89 2036.17C1568.67 2042.89 1564.47 2044.55 1555.25 2044.55C1555.25 2047.9 1554.39 2050.43 1551.88 2053.77C1550.2 2054.6 1546.83 2058.82 1542.65 2058.82C1545.16 2050.44 1540.96 2042.88 1534.25 2042.88C1533.42 2042.88 1533.42 2044.55 1533.42 2045.38C1535.95 2053.76 1531.75 2062.18 1520 2059.65C1514.95 2066.37 1500.7 2066.37 1493.15 2058.82L1491.48 2057.14C1498.19 2056.31 1501.53 2056.31 1507.42 2053.77C1507.42 2050.43 1507.42 2049.6 1505.74 2047.05C1499.02 2047.05 1491.48 2049.58 1484.77 2053.77C1484.77 2044.55 1489.82 2032.8 1498.19 2032.8C1500.7 2026.08 1501.54 2026.92 1503.24 2024.42C1499.04 2021.89 1491.49 2019.38 1486.44 2021.05H1483.94C1489.82 2007.63 1499.04 2006.78 1507.43 2010.15C1509.96 2009.3 1514.15 2006.78 1516.68 2007.63C1521.72 2007.63 1521.72 2015.17 1525.9 2017.7C1530.94 2019.38 1536.82 2011.83 1536.82 2006.78C1536.82 1995.86 1521.72 1993.36 1509.97 1995.86C1501.57 1997.56 1494.02 1995.86 1487.3 1990.84C1481.33 1986.54 1475.72 1981.76 1470.53 1976.55C1468.83 1976.55 1468.83 1977.41 1468.83 1979.08C1468 1982.43 1463.81 1988.3 1468.83 1993.35C1473.03 1995.85 1481.42 1998.39 1481.42 2005.1C1481.42 2007.6 1481.42 2011.82 1477.25 2012.65C1474.72 2016.85 1468.84 2017.69 1468 2023.57C1468 2031.11 1468.83 2032.79 1473.05 2039.51C1468.84 2040.34 1461.29 2037.83 1457.09 2036.16C1454.59 2037.83 1451.24 2044.54 1449.54 2047.88C1445.37 2049.58 1444.53 2039.51 1442.83 2040.34C1442 2040.34 1436.11 2047.05 1437.78 2047.88C1435.28 2049.58 1432.76 2040.34 1432.76 2037.83C1427.72 2040.34 1426.04 2045.38 1426.04 2049.58C1423.51 2047.88 1421.84 2044.54 1421 2042.03H1419.32C1415.95 2047.05 1411.75 2047.88 1405.88 2047.05C1403.36 2047.05 1407.56 2042.03 1407.56 2040.34H1405.05C1402.53 2044.54 1388.26 2044.54 1388.26 2042.03C1391.62 2039.51 1395.82 2035.32 1394.98 2031.11C1393.31 2028.61 1391.62 2028.61 1390.79 2029.42C1385.75 2032.79 1383.23 2037.82 1377.35 2042.86C1372.32 2044.54 1368.13 2042.86 1365.6 2039.49C1358.04 2039.49 1351.34 2039.49 1344.62 2044.54H1343.78C1346.29 2031.11 1350.49 2028.6 1358.04 2026.07C1358.04 2023.57 1358.04 2019.35 1356.37 2017.69C1351.34 2014.32 1346.31 2015.16 1340.43 2017.69C1339.6 2014.32 1347.15 2000.06 1358.06 2005.1C1358.9 2005.1 1360.57 2003.4 1360.57 2002.57C1358.06 1994.19 1353.02 1994.19 1347.15 1995.85C1347.15 1988.3 1358.9 1979.08 1367.29 1984.95C1368.13 1984.12 1370.65 1982.43 1372.32 1982.43C1379.04 1981.6 1379.88 1988.3 1384.07 1990.83C1386.59 1991.66 1391.62 1993.33 1395.82 1997.55C1400.01 2003.4 1403.37 2003.4 1411.76 2005.1C1416.81 2005.1 1421.84 2005.1 1427.72 2003.4C1436.09 2000.89 1436.09 1989.13 1428.55 1988.3C1419.32 1986.63 1411.75 1990.83 1403.37 1988.3C1390.79 1984.95 1388.26 1981.58 1388.26 1965.66C1377.35 1970.67 1353.01 1979.08 1347.14 1979.92C1344.62 1984.12 1339.59 1984.97 1335.38 1984.97C1332.87 1988.31 1339.59 1995.86 1340.42 1995.86C1337.9 1998.39 1320.27 2006.78 1322.8 2007.61C1322.8 2009.29 1323.63 2009.29 1325.32 2010.14C1323.65 2011.81 1318.6 2012.65 1317.76 2014.32C1317.76 2015.15 1318.6 2016.85 1320.27 2016.85C1316.07 2019.35 1311.04 2017.68 1306.85 2021.87C1304.33 2023.57 1300.13 2024.4 1295.1 2026.07C1293.43 2028.6 1296.77 2031.11 1295.1 2032.79C1274.96 2037.83 1271.6 2026.91 1266.57 2028.61C1264.05 2029.42 1260.69 2032.79 1258.18 2035.33C1259.85 2042.88 1253.14 2054.6 1245.59 2054.6C1242.24 2053.77 1248.1 2050.43 1243.91 2045.38C1243.91 2044.55 1242.24 2044.55 1241.39 2042.88C1237.2 2042.88 1238.89 2056.3 1229.66 2054.6C1227.97 2053.77 1227.14 2052.1 1225.45 2052.1C1215.39 2058.82 1211.19 2061.32 1199.45 2052.1H1198.61C1217.9 2047.05 1220.43 2028.61 1194.42 2035.33H1192.73C1195.22 2024.46 1201.94 2021.09 1208.66 2021.09ZM1395.81 1874.22V1871.72C1403.36 1885.98 1419.31 1887.66 1433.58 1884.31C1458.75 1880.94 1493.99 1866.68 1516.66 1866.68C1524.21 1866.68 1542.68 1870.06 1542.68 1881.81C1542.68 1890.18 1540.15 1895.23 1534.28 1899.41C1526.73 1904.45 1507.43 1906.98 1499.04 1906.98C1493.99 1906.98 1473.02 1906.98 1468.82 1897.73C1465.47 1896.9 1460.44 1895.23 1454.55 1895.23C1436.08 1895.23 1415.94 1904.45 1400 1904.45C1395.81 1904.44 1394.97 1880.94 1395.81 1874.22ZM1436.08 1841.5C1444.49 1846.54 1449.51 1855.79 1458.75 1859.97C1460.43 1862.49 1438.61 1869.21 1431.04 1869.21C1416.77 1869.21 1412.59 1862.49 1412.59 1855.79C1412.61 1846.53 1426.03 1836.48 1436.08 1841.5ZM1068.49 1802.05H1243.9V1674.48H1516.66V1802.05H1692.9V2074.82H1516.66V2258.6L1381.54 2307.29L1243.91 2258.6V2074.82H1068.49V1802.05Z" fill="#D06332"/>
<path fill-rule="evenodd" clip-rule="evenodd" d="M1068.49 1426.92H1692.9V1661.89H1068.49V1426.92Z" fill="#E0EBF2"/>
<path fill-rule="evenodd" clip-rule="evenodd" d="M1051.71 1410.12V2168.8C1051.71 2204.9 1076.04 2214.12 1097.03 2220.84L1381.53 2324.06L1664.36 2220.84C1685.33 2214.12 1710.52 2202.39 1710.52 2168.8V1410.12H1051.71ZM1068.49 2084.87H1233.83V2256.09L1097.04 2204.9C1082.77 2199.85 1068.51 2188.1 1068.51 2168.8L1068.49 2084.87ZM1692.9 2084.87H1528.41V2256.09L1664.36 2204.9C1678.63 2199.85 1692.88 2188.1 1692.88 2168.8L1692.9 2084.87ZM1528.41 1674.48H1692.9V1790.3H1528.41V1674.48ZM1068.49 1674.48H1233.83V1790.3H1068.49V1674.48ZM1206.98 2021.09C1216.21 2010.19 1201.11 2006.82 1195.23 2007.66C1198.59 2000.12 1208.66 1993.4 1216.21 1997.61C1222.09 1993.41 1227.96 1993.41 1229.64 2000.96C1232.16 2009.34 1239.71 2010.21 1246.43 2010.21C1259.85 2010.21 1267.41 2000.13 1264.89 1988.37C1264.89 1984.19 1267.41 1976.61 1271.61 1972.43C1272.44 1970.73 1257.33 1970.73 1254.83 1959C1248.11 1963.18 1231.33 1965.72 1227.14 1959C1227.97 1958.17 1239.72 1953.96 1237.2 1949.75C1232.17 1947.25 1231.33 1949.75 1227.14 1949.75C1227.14 1944.71 1236.37 1941.38 1234.69 1939.7C1232.17 1935.5 1227.97 1939.7 1224.62 1939.7C1227.14 1935.5 1229.67 1932.13 1229.67 1927.95C1227.98 1922.91 1222.11 1922.91 1216.23 1923.75C1215.4 1918.7 1227.15 1913.7 1224.62 1909.48C1222.95 1908.65 1219.59 1909.48 1216.23 1908.65C1216.23 1908.65 1217.92 1908.65 1217.92 1906.98C1220.43 1905.28 1222.95 1902.78 1222.95 1900.26C1222.95 1897.73 1217.92 1897.73 1215.39 1897.73C1219.59 1888.51 1225.45 1888.51 1233.86 1883.47C1234.69 1880.94 1234.69 1878.42 1232.18 1878.42C1227.15 1878.42 1222.95 1875.92 1220.43 1870.04C1220.43 1869.21 1219.59 1867.51 1220.43 1866.67C1222.95 1866.67 1225.47 1866.67 1227.98 1865C1231.34 1864.17 1229.67 1862.49 1227.98 1860.79C1225.47 1859.96 1222.11 1862.49 1219.59 1859.96C1215.39 1859.96 1217.92 1854.95 1213.72 1854.95C1204.48 1853.25 1204.48 1839.82 1209.51 1834.78C1209.51 1834.78 1217.9 1846.53 1219.59 1838.98C1219.59 1831.43 1212.87 1827.23 1206.17 1825.56C1213.73 1817.18 1225.47 1822.18 1229.67 1825.56C1232.18 1827.23 1233.86 1825.56 1236.39 1825.56C1236.39 1824.73 1238.9 1823.05 1237.22 1820.51C1234.7 1815.47 1232.18 1815.47 1227.98 1813.79C1234.7 1807.07 1248.97 1810.45 1254.84 1819.67C1257.36 1823.04 1264.08 1822.17 1264.08 1828.05C1264.08 1833.92 1258.2 1828.05 1258.2 1854.92C1258.2 1869.19 1267.44 1885.96 1269.95 1884.28C1271.63 1881.78 1272.47 1879.24 1274.14 1875.9C1274.14 1875.9 1271.63 1875.9 1271.63 1874.21C1272.46 1866.66 1276.66 1859.94 1280.85 1853.23H1274.97C1274.97 1848.19 1280.85 1843.18 1285.04 1838.97C1285.04 1837.29 1278.32 1837.29 1276.64 1834.76C1278.32 1832.26 1285.87 1825.54 1285.87 1824.71C1283.35 1822.18 1281.68 1822.18 1280.83 1819.67C1281.68 1817.16 1290.07 1815.47 1292.58 1808.75C1292.58 1807.07 1288.4 1804.57 1287.55 1804.57C1288.4 1803.74 1292.58 1804.57 1296.79 1804.57C1305.18 1803.74 1311.05 1804.57 1311.05 1804.57C1311.9 1803.74 1309.38 1801.2 1309.38 1798.7C1316.1 1799.53 1320.29 1798.7 1321.13 1791.98C1322.8 1791.98 1323.65 1794.48 1326.16 1794.48C1332.88 1797.01 1340.43 1801.2 1346.31 1807.07C1353.02 1802.03 1362.25 1802.03 1369.81 1802.03C1373.17 1801.2 1374.85 1802.03 1376.52 1802.03C1369.81 1810.43 1384.09 1810.43 1390.8 1806.23C1397.52 1815.45 1397.52 1822.17 1390.8 1829.73C1394.99 1832.24 1398.35 1839.78 1400.03 1838.95C1409.26 1827.2 1428.56 1823.01 1426.06 1815.45C1423.53 1807.07 1416.81 1807.07 1410.1 1807.07C1411.78 1802.03 1419.35 1802.03 1428.57 1802.03C1428.57 1798.68 1427.74 1795.31 1428.57 1792.81C1442.84 1795.31 1448.71 1811.28 1457.09 1812.95C1465.5 1813.78 1474.72 1808.75 1481.44 1803.73H1482.27C1481.44 1819.67 1498.22 1807.07 1503.27 1810.45C1504.1 1824.71 1479.76 1828.05 1477.25 1834.76C1474.72 1841.48 1479.75 1843.17 1481.42 1845.69C1479.75 1846.52 1470.53 1846.52 1471.37 1850.73C1475.55 1855.78 1486.47 1853.23 1487.31 1849.9C1491.51 1841.5 1484.81 1838.98 1484.81 1837.31C1486.48 1836.48 1489.85 1838.98 1493.19 1836.48C1494.02 1833.95 1491.51 1832.27 1491.51 1831.43C1496.56 1832.26 1501.57 1836.48 1510.81 1833.93C1514.16 1832.26 1510.81 1829.76 1512.49 1827.22C1517.53 1828.05 1522.56 1833.93 1526.75 1836.46C1530.96 1834.76 1529.28 1829.75 1528.45 1823.04C1533.47 1822.18 1538.5 1837.31 1545.22 1838.98C1547.73 1839.81 1550.27 1836.48 1550.27 1833.93C1551.94 1833.93 1551.94 1834.76 1551.94 1836.46C1561.19 1869.19 1571.24 1837.29 1576.29 1843.18C1577.96 1843.18 1576.29 1844.01 1576.29 1844.01C1573.78 1846.52 1572.91 1852.39 1573.78 1855.76C1579.63 1875.9 1558.66 1880.91 1559.49 1880.91C1561.19 1925.4 1515 1926.25 1491.53 1921.21C1498.25 1935.47 1515.02 1937.15 1516.7 1949.73C1517.53 1953.93 1519.21 1965.68 1522.58 1969.87C1529.3 1974.07 1541.02 1967.37 1546.9 1963.15C1556.97 1964.85 1556.97 1970.7 1558.65 1972.4C1568.72 1974.07 1576.27 1967.35 1585.49 1964.85C1588.02 1967.35 1580.47 1976.58 1584.66 1974.9C1585.49 1974.9 1585.49 1974.07 1587.19 1974.9C1588.02 1979.95 1584.66 1984.98 1585.49 1988.33C1587.19 1989.16 1588.02 1989.16 1591.37 1990.86C1589.7 1993.36 1587.19 1991.69 1584.65 1997.57C1585.48 1998.4 1591.37 1998.4 1593.9 1998.4C1591.37 2003.42 1582.15 2009.3 1580.47 2011.83C1582.15 2012.66 1585.49 2012.66 1587.19 2012.66C1587.19 2016.86 1579.62 2017.7 1577.95 2021.04C1579.62 2021.87 1580.47 2021.87 1582.15 2023.57C1579.62 2026.91 1568.72 2031.11 1571.23 2032.79C1572.9 2033.62 1575.43 2035.32 1577.95 2036.16C1569.57 2042.88 1564.52 2044.54 1555.3 2044.54C1555.3 2047.88 1555.3 2050.41 1551.93 2053.76C1550.25 2056.29 1545.21 2058.8 1541.01 2058.8C1543.54 2050.43 1541.01 2042.86 1534.29 2042.86C1534.29 2044.54 1533.46 2044.54 1533.46 2045.37C1535.99 2053.75 1531.79 2062.16 1520.04 2061.31C1514.99 2068.05 1499.06 2068.05 1491.51 2058.8V2056.3C1498.23 2056.3 1501.57 2056.3 1507.45 2053.77C1507.45 2050.43 1507.45 2049.6 1505.78 2047.9C1499.06 2047.07 1491.51 2050.43 1484.81 2053.77C1483.98 2044.55 1489.85 2032.8 1498.23 2032.8C1500.74 2024.42 1501.58 2026.92 1501.58 2024.42C1498.23 2021.89 1491.53 2021.05 1486.48 2021.05C1484.81 2021.05 1483.98 2021.88 1482.28 2021.05C1489 2007.63 1499.08 2006.78 1507.45 2010.15C1509.98 2007.63 1514.17 2005.11 1516.7 2006.78C1521.75 2006.78 1522.58 2015.16 1525.92 2017.7C1530.97 2019.38 1536.84 2011.83 1536.84 2006.78C1536.84 1995.86 1519.22 1994.19 1510 1995.86C1501.59 1997.56 1494.04 1995.86 1486.5 1990.84C1481.45 1986.64 1475.57 1982.44 1470.56 1977.42C1468.86 1976.56 1468.86 1977.42 1468.86 1979.09C1468.03 1982.44 1465.51 1988.31 1468.86 1993.36C1473.06 1995.86 1481.45 1998.4 1482.28 2005.11C1481.45 2007.61 1481.45 2011.83 1478.1 2014.33C1474.73 2016.86 1468.86 2019.38 1468.86 2024.41C1468.03 2031.13 1468.86 2032.79 1474.73 2039.51C1468.86 2042.03 1461.31 2039.51 1457.11 2037.83C1456.28 2037.83 1452.09 2045.38 1451.26 2047.88C1447.05 2049.58 1444.54 2039.51 1442.85 2040.34C1442.02 2042.03 1437.81 2047.05 1437.81 2049.58C1435.3 2050.41 1432.79 2040.34 1431.09 2039.51C1428.59 2042.03 1426.07 2045.38 1426.07 2049.58C1423.54 2047.88 1421.87 2045.38 1419.35 2042.86C1415.98 2047.04 1410.1 2049.58 1405.07 2047.88C1403.4 2047.05 1407.59 2042.86 1405.9 2042.03C1405.9 2040.34 1405.07 2042.03 1405.07 2042.03C1402.56 2045.38 1386.62 2045.38 1386.62 2042.03C1390.82 2039.51 1395.01 2035.32 1393.33 2031.11C1393.33 2028.61 1391.66 2029.41 1390.82 2029.41C1385.77 2032.79 1383.26 2039.49 1377.38 2042.86C1372.35 2045.37 1368.16 2044.54 1365.63 2040.34C1358.07 2039.51 1351.36 2039.51 1344.65 2045.38C1344.65 2044.55 1343.8 2044.55 1343.8 2044.55C1346.32 2031.13 1350.52 2028.61 1358.07 2026.08C1358.07 2023.58 1358.07 2021.04 1355.55 2017.7C1351.36 2015.17 1344.65 2016.87 1340.44 2019.38C1337.93 2016.87 1346.32 1998.4 1358.07 2005.11C1358.91 2005.11 1358.91 2003.41 1360.58 2002.58C1358.07 1994.2 1353.04 1994.2 1347.16 1997.56C1346.33 1986.64 1358.91 1979.09 1367.3 1984.14C1368.15 1982.44 1370.66 1982.44 1372.34 1981.61C1379.05 1981.61 1379.9 1988.33 1384.09 1990.86C1386.6 1991.69 1393.31 1993.36 1395.84 1997.57C1400.03 2003.42 1403.39 2003.42 1411.78 2005.12C1416.82 2005.12 1421.85 2005.12 1426.07 2003.42C1435.29 2000.92 1435.29 1989.16 1428.57 1989.16C1419.35 1988.33 1411.78 1990.86 1403.4 1988.33C1390.82 1984.98 1386.62 1981.61 1386.62 1967.35C1377.38 1970.7 1353.05 1979.11 1347.16 1979.95C1344.65 1984.15 1340.44 1984.99 1335.41 1986.67C1332.89 1988.34 1340.44 1995.89 1340.44 1995.89C1340.44 1998.42 1321.14 2007.64 1322.83 2007.64C1323.66 2009.31 1325.35 2009.31 1326.19 2010.17C1326.19 2012.67 1318.63 2012.67 1317.8 2014.34C1318.64 2015.17 1320.31 2016.87 1321.16 2016.87C1317.8 2021.05 1311.08 2019.38 1306.89 2023.59C1304.37 2024.42 1300.17 2026.09 1296.81 2026.94C1293.45 2028.64 1297.66 2031.14 1296.81 2032.81C1275 2037.86 1271.64 2028.64 1266.59 2029.44C1264.08 2029.44 1260.72 2032.81 1258.2 2035.34C1259.87 2042.89 1253.17 2056.31 1243.93 2056.31C1241.42 2053.78 1246.45 2050.44 1243.93 2045.39C1243.93 2044.56 1242.26 2044.56 1241.42 2044.56C1237.23 2044.56 1238.92 2057.16 1229.68 2054.62C1228 2054.62 1227.16 2052.11 1225.48 2053.79C1215.41 2058.83 1209.54 2061.33 1198.63 2052.11C1217.93 2047.07 1220.46 2028.62 1192.76 2035.34C1194.39 2024.46 1201.1 2021.09 1206.98 2021.09ZM1395.81 1874.22C1395.81 1872.55 1395.81 1872.55 1397.48 1872.55C1403.36 1887.64 1419.31 1888.5 1433.58 1885.97C1460.43 1881.79 1493.99 1866.67 1516.66 1866.67C1524.21 1866.67 1542.68 1870.04 1542.68 1881.79C1542.68 1890.17 1540.15 1895.22 1534.28 1899.39C1526.73 1904.44 1507.43 1906.97 1499.04 1906.97C1493.99 1906.97 1474.69 1905.27 1468.82 1897.72C1465.47 1895.22 1460.44 1893.52 1454.55 1893.52C1436.08 1893.52 1415.94 1904.44 1400 1904.44C1395.81 1904.44 1394.97 1880.94 1395.81 1874.22ZM1436.08 1841.5C1442.8 1846.54 1448.68 1855.79 1458.75 1860.79C1458.75 1862.49 1438.61 1869.2 1431.04 1869.2C1416.77 1869.2 1412.59 1862.48 1412.59 1855.78C1412.61 1848.2 1426.03 1836.48 1436.08 1841.5ZM1068.49 1802.05H1243.9V1674.48H1516.66V1802.05H1692.9V2074.82H1516.66V2258.6L1381.54 2307.29L1243.91 2258.6V2074.82H1068.49V1802.05Z" fill="#0C0E0F"/>
<path fill-rule="evenodd" clip-rule="evenodd" d="M1061.79 2274.56C1061.79 2274.56 1084.45 2264.48 1100.4 2269.51L1379.87 2370.21L1650.95 2272.86C1678.64 2262.81 1699.61 2272.86 1699.61 2276.23V2382.83C1690.39 2377.78 1671.92 2371.08 1650.95 2379.46L1379.87 2473.46L1110.48 2376.93C1089.49 2370.21 1073.54 2377.78 1061.8 2381.97L1061.79 2274.56Z" fill="#E7EEF3"/>
<path fill-rule="evenodd" clip-rule="evenodd" d="M1682.82 2345.06C1674.44 2349.24 1661.85 2353.44 1653.46 2355.95H1650.95C1652.62 2351.78 1653.46 2346.73 1652.63 2342.53C1648.42 2334.98 1645.91 2325.76 1641.7 2316.51C1640.87 2312.31 1636.66 2311.47 1634.16 2308.97H1634.99C1643.36 2304.76 1655.13 2302.25 1662.68 2298.04C1665.21 2297.21 1667.72 2295.54 1671.08 2297.21C1671.91 2300.59 1676.1 2303.09 1676.1 2307.29C1671.92 2309.8 1669.38 2305.59 1666.88 2304.76C1661.83 2303.09 1655.13 2305.59 1650.08 2308.97C1648.41 2308.97 1650.08 2309.8 1650.08 2311.47C1650.94 2314.84 1652.61 2319.04 1653.46 2323.22C1659.33 2321.55 1665.21 2320.72 1666.88 2314.84C1666.88 2314.01 1667.71 2314.01 1669.38 2314.01C1671.91 2314.84 1671.08 2317.36 1671.91 2319.06C1671.91 2321.56 1674.41 2324.07 1674.41 2325.77C1671.07 2326.6 1667.7 2321.57 1664.36 2324.07C1661.83 2324.07 1659.32 2325.77 1656.79 2326.6C1657.64 2333.32 1659.32 2340.03 1662.66 2345.07C1667.71 2346.75 1678.62 2344.22 1681.13 2335.83C1682.81 2333.32 1681.13 2329.95 1683.66 2328.28C1685.33 2326.6 1686.16 2329.95 1686.16 2330.78C1686.18 2334.97 1687.85 2344.19 1682.82 2345.06ZM1627.44 2365.19C1626.61 2365.19 1622.39 2367.69 1618.19 2367.69C1618.19 2366.02 1619.89 2365.19 1619.89 2361.82C1622.39 2353.44 1612.32 2334.97 1608.14 2323.21C1603.94 2321.53 1599.76 2326.58 1598.89 2329.92C1596.39 2330.75 1597.22 2334.97 1594.72 2335.8C1591.34 2335.8 1593.88 2332.45 1592.19 2329.92C1591.36 2328.25 1589.68 2326.58 1589.68 2324.05C1589.68 2323.22 1618.2 2314 1629.12 2309.78C1632.5 2308.95 1632.5 2313.98 1635 2314.83C1635 2317.33 1638.37 2320.7 1635 2323.21C1632.5 2323.21 1632.5 2319.03 1629.95 2319.03C1626.61 2316.5 1622.41 2317.33 1618.2 2319.03C1615.7 2317.33 1617.37 2320.7 1617.37 2321.53C1620.75 2332.45 1624.95 2346.71 1629.97 2355.93C1631.67 2358.46 1635.01 2358.46 1636.69 2360.97C1634.99 2361.83 1631.64 2361.83 1627.44 2365.19ZM1591.34 2375.25C1579.59 2367.71 1566.17 2356.78 1554.4 2347.56C1554.4 2346.73 1552.73 2346.73 1552.73 2347.56C1558.61 2358.48 1559.45 2370.21 1567.02 2380.29C1568.7 2381.96 1572.87 2381.96 1571.2 2384.49C1568.7 2386.16 1566.16 2384.49 1563.65 2386.99C1561.15 2386.16 1558.61 2389.52 1556.93 2386.16C1561.14 2375.24 1554.4 2365.19 1551.89 2354.27C1550.22 2351.77 1549.39 2347.55 1547.69 2344.19C1542.67 2345.05 1540.14 2350.07 1538.47 2354.27C1536.79 2356.77 1535.96 2354.27 1534.26 2353.44C1531.76 2351.77 1529.24 2349.24 1525.88 2349.24C1521.65 2350.04 1517.64 2351.76 1514.13 2354.28C1514.96 2359.33 1516.66 2365.2 1519.18 2368.55C1519.18 2370.22 1520.01 2370.22 1521.71 2370.22C1524.21 2368.55 1529.26 2367.72 1530.93 2361.84H1531.76C1534.26 2365.22 1535.96 2368.56 1535.96 2371.09C1534.26 2372.76 1533.43 2370.23 1531.76 2371.09C1528.41 2371.09 1524.21 2372.76 1520.01 2374.44C1522.54 2380.31 1524.21 2386.19 1526.73 2391.23C1528.43 2393.74 1533.45 2393.74 1535.97 2392.06C1543.52 2389.56 1547.7 2381.98 1547.7 2374.44H1550.23C1552.73 2377.81 1552.73 2382.84 1554.4 2387.03C1554.4 2388.7 1554.4 2389.56 1552.73 2391.23C1542.68 2393.74 1534.26 2396.28 1524.21 2400.45C1522.54 2400.45 1520.01 2401.28 1517.49 2402.98C1516.66 2401.28 1516.66 2402.98 1516.66 2401.28C1514.96 2400.45 1516.66 2400.45 1516.66 2398.78C1520.01 2391.23 1514.96 2382.84 1510.79 2371.09C1509.96 2367.72 1507.42 2356.8 1501.54 2356.8C1500.71 2356.8 1500.71 2358.5 1500.71 2358.5V2361C1499.04 2361 1496.53 2361 1495.66 2361.83C1495.66 2361.83 1493.99 2361.83 1493.99 2363.5C1493.99 2368.55 1496.52 2372.75 1498.19 2377.8C1501.54 2386.17 1503.24 2397.09 1510.79 2402.97C1512.46 2403.8 1510.79 2403.8 1509.96 2405.47C1505.76 2407.15 1500.71 2407.15 1496.53 2409.68C1494 2407.98 1496.53 2403.8 1496.53 2401.27C1496.53 2397.09 1495.68 2392.05 1494 2387C1491.5 2381.96 1489.83 2376.93 1487.29 2370.21C1486.46 2372.74 1486.46 2376.93 1484.78 2379.46C1483.95 2388.68 1483.95 2398.76 1483.95 2407.98C1483.95 2409.68 1482.25 2409.68 1481.42 2409.68C1479.75 2409.68 1478.08 2407.98 1478.08 2407.15C1471.36 2400.43 1460.45 2386.17 1452.06 2380.3C1451.23 2379.47 1452.06 2382.83 1452.06 2384.5C1456.24 2393.72 1458.78 2403.8 1463.81 2412.19C1465.48 2414.69 1466.31 2415.56 1468.83 2417.24C1468.83 2418.91 1470.53 2418.91 1468.83 2418.91C1466.33 2419.74 1463.81 2419.74 1461.28 2421.41C1458.78 2421.41 1456.24 2424.79 1453.73 2422.27C1457.08 2415.55 1454.56 2407.98 1452.06 2401.27C1449.53 2393.72 1447.02 2387 1445.34 2380.3L1444.51 2379.47C1440.31 2381.97 1441.98 2384.51 1438.64 2388.69C1438.64 2389.55 1437.78 2389.55 1437.78 2389.55C1436.11 2387.02 1437.78 2384.5 1437.78 2381.97C1437.78 2377.8 1441.98 2372.75 1444.53 2371.08C1449.54 2370.22 1454.58 2370.22 1458.79 2374.42C1465.51 2380.3 1471.39 2388.69 1478.09 2394.57H1479.76C1479.76 2386.19 1481.44 2375.27 1482.27 2367.72C1483.97 2365.22 1484.8 2359.34 1488.99 2358.5C1491.51 2356.8 1494.03 2355.97 1496.56 2356.8C1498.23 2355.97 1500.74 2354.29 1501.58 2353.45C1512.5 2349.25 1521.75 2345.07 1531.8 2342.53L1533.47 2344.2C1534.3 2345.06 1534.3 2347.58 1536.84 2349.25C1536.84 2346.75 1538.52 2344.2 1541.02 2341.7C1545.22 2337.5 1552.77 2335.83 1558.65 2340.03C1566.19 2344.2 1582.15 2359.33 1588.04 2361C1587.21 2354.28 1582.99 2347.58 1580.49 2341.7C1579.63 2337.5 1576.28 2332.48 1572.91 2332.48C1571.24 2332.48 1571.24 2330.78 1571.24 2329.95C1576.45 2328.17 1581.78 2326.77 1587.19 2325.77C1588.02 2326.6 1585.49 2329.95 1585.49 2332.49C1587.19 2342.54 1589.7 2350.09 1593.9 2359.34C1594.73 2365.22 1597.24 2368.56 1598.92 2372.76C1599.75 2375.25 1593.87 2377.78 1591.34 2375.25ZM1421.83 2393.72C1421 2393.72 1415.95 2387 1410.08 2388.68C1407.56 2389.53 1402.53 2391.21 1402.53 2393.72C1405.88 2402.97 1407.56 2407.15 1410.08 2415.56C1411.75 2422.28 1416.8 2431.5 1421 2433.16C1421.83 2433.16 1421.83 2433.99 1421.83 2433.99C1418.46 2436.52 1412.61 2436.52 1409.23 2438.2C1407.56 2439.03 1405.03 2440.7 1402.52 2440.7C1400.84 2438.2 1405.03 2436.52 1405.03 2433.98C1405.03 2429.8 1403.36 2426.43 1400 2415.54C1398.33 2410.49 1394.97 2397.07 1393.28 2396.24C1388.25 2396.24 1383.2 2397.07 1381.53 2402.96C1379.86 2403.79 1379.01 2407.13 1379.01 2409.68H1374.83C1373.14 2403.8 1373.14 2398.75 1368.11 2394.55C1367.26 2393.72 1360.55 2392.05 1356.36 2391.21C1351.32 2389.53 1353 2396.25 1351.32 2398.75C1350.48 2401.26 1346.29 2405.47 1351.32 2407.98C1355.51 2409.68 1358.89 2410.51 1364.75 2409.68C1365.59 2410.51 1365.59 2412.18 1365.59 2413.02C1364.75 2415.55 1364.75 2418.9 1362.23 2419.74C1358.87 2418.91 1358.87 2415.56 1356.36 2414.69C1353.84 2413.02 1351.32 2412.19 1348.8 2410.52H1346.28C1344.61 2417.24 1340.4 2423.94 1342.08 2428.99C1343.75 2431.49 1351.31 2434.01 1353.83 2435.71C1360.55 2436.54 1367.26 2434.01 1370.61 2429.83C1372.28 2429 1373.13 2427.3 1374.81 2429.83V2431.5C1372.3 2435.71 1369.77 2442.42 1364.74 2443.25C1353.83 2439.05 1337.87 2434.01 1326.14 2428.99C1325.29 2427.29 1326.14 2427.29 1326.14 2427.29C1332.86 2427.29 1337.87 2410.52 1339.56 2407.15C1340.39 2398.77 1343.75 2394.55 1343.75 2388.68C1343.75 2386.17 1340.39 2384.5 1340.39 2381.96C1344.59 2381.96 1348.78 2384.49 1353.81 2386.16C1358.86 2386.99 1364.72 2389.53 1369.75 2391.21C1373.11 2392.04 1377.32 2394.55 1383.18 2393.71C1395.77 2389.53 1407.52 2384.49 1419.29 2380.29C1421.79 2384.49 1426 2392.04 1424.31 2393.71H1421.83V2393.72ZM1317.76 2375.25C1313.57 2375.25 1311.88 2380.3 1311.04 2382.83C1307.68 2387 1306.85 2391.21 1305.17 2396.25C1302.65 2402.97 1300.13 2410.52 1293.41 2413.02C1290.9 2414.69 1288.38 2414.69 1285.85 2414.69C1278.3 2414.69 1264.04 2409.68 1262.35 2400.43C1260.67 2393.71 1264.87 2387 1267.38 2380.29C1269.06 2374.41 1274.1 2367.69 1271.59 2359.31C1269.91 2359.31 1269.91 2358.48 1269.91 2356.78C1271.59 2355.95 1274.1 2356.78 1274.1 2356.78C1278.3 2359.31 1281.66 2360.99 1285.85 2361.83C1287.53 2361.83 1290.9 2361.83 1290.06 2365.2C1287.54 2366.03 1283.34 2367.71 1280.82 2371.08C1276.63 2379.46 1274.1 2388.68 1271.6 2397.09C1269.93 2401.27 1272.43 2405.47 1276.63 2407.99C1279.15 2410.52 1285.02 2410.52 1288.38 2410.52C1296.77 2409.69 1300.13 2392.05 1302.65 2386.17C1304.32 2380.3 1306.85 2375.25 1302.65 2371.08C1302.65 2370.22 1302.65 2368.55 1304.32 2368.55C1307.68 2370.22 1313.56 2372.75 1317.75 2374.42C1318.6 2374.41 1318.6 2375.25 1317.76 2375.25ZM1264.05 2356.78C1255.66 2360.99 1253.14 2370.21 1250.61 2379.46C1248.1 2384.5 1245.58 2389.53 1242.22 2394.55C1242.22 2396.25 1242.22 2397.08 1241.38 2398.75C1239.71 2398.75 1237.19 2398.75 1236.35 2397.08C1236.35 2397.08 1234.66 2396.25 1234.66 2394.55C1232.53 2387.39 1230.84 2380.11 1229.63 2372.74C1229.63 2367.69 1227.94 2360.99 1227.11 2355.94C1227.11 2354.27 1225.43 2350.07 1224.6 2350.07C1220.41 2356.78 1219.56 2361.82 1216.21 2368.54C1215.38 2374.41 1212.86 2381.96 1213.7 2384.49C1215.38 2386.16 1216.21 2386.99 1215.38 2388.66C1213.7 2391.19 1212.86 2388.66 1209.5 2386.99C1206.15 2386.99 1203.62 2386.16 1201.12 2384.49C1201.12 2382.82 1201.95 2381.96 1203.64 2381.96C1208.67 2379.46 1211.2 2371.06 1212.87 2366.02C1215.39 2359.3 1216.22 2355.94 1219.59 2349.22C1220.43 2347.55 1220.43 2345.05 1219.59 2345.05C1216.23 2344.19 1213.72 2345.05 1211.2 2347.55C1209.51 2347.55 1209.51 2347.55 1209.51 2346.72C1209.51 2344.19 1212.87 2344.19 1213.72 2342.52C1216.22 2340.01 1220.43 2338.34 1225.45 2340.01C1227.97 2340.01 1231.33 2341.69 1232.17 2345.06C1237.2 2355.95 1238.89 2367.71 1239.72 2379.46C1241.39 2380.29 1239.72 2382.83 1241.39 2384.5C1243.91 2377.78 1246.44 2371.08 1248.95 2365.2C1248.95 2361 1252.31 2354.28 1248.11 2349.25C1248.11 2349.25 1248.95 2349.25 1248.95 2347.58C1254.83 2350.08 1260.7 2351.78 1264.91 2354.29C1266.55 2355.95 1264.88 2355.95 1264.05 2356.78ZM1194.39 2381.96C1190.19 2380.29 1183.47 2379.46 1178.45 2377.78C1178.45 2376.93 1175.93 2375.25 1176.76 2375.25C1178.45 2374.42 1180.12 2374.42 1180.12 2374.42C1185.17 2371.08 1183.48 2365.2 1183.48 2359.33C1178.25 2358.28 1173.18 2356.59 1168.37 2354.28C1164.18 2358.48 1161.65 2365.2 1162.5 2370.22C1161.65 2372.75 1159.14 2371.08 1157.45 2370.22C1154.94 2368.55 1154.11 2368.55 1150.73 2367.72C1149.9 2367.72 1147.37 2366.05 1147.37 2365.22C1148.2 2361.84 1149.89 2365.22 1154.09 2361.84C1162.48 2353.46 1170.88 2341.7 1178.42 2330.78C1180.1 2329.95 1174.22 2329.95 1171.71 2330.78C1169.19 2330.78 1168.35 2333.31 1166.67 2332.48V2330.78C1171.71 2326.6 1178.42 2323.23 1185.14 2325.76C1191.86 2328.26 1192.69 2334.98 1192.69 2341.7V2374.42C1192.69 2375.25 1194.38 2379.47 1196.89 2380.3C1196.91 2381.96 1195.22 2381.96 1194.39 2381.96ZM1183.47 2354.28C1180.11 2353.45 1174.25 2351.78 1171.72 2349.24C1173.39 2344.19 1178.44 2340.01 1182.63 2334.97C1183.47 2337.49 1183.47 2353.44 1183.47 2354.28ZM1159.14 2321.55C1157.45 2321.55 1154.94 2320.72 1154.11 2321.55C1150.75 2324.05 1148.22 2330.77 1147.39 2335.81C1144.03 2344.19 1140.67 2350.08 1139 2356.78C1139 2359.31 1141.51 2360.99 1140.68 2363.5C1139 2365.2 1138.17 2363.5 1136.48 2363.5C1133.96 2361.83 1128.93 2361 1126.42 2358.48C1124.73 2358.48 1123.9 2356.78 1124.73 2356.78C1126.42 2355.95 1133.12 2351.77 1133.96 2347.56C1136.48 2340.01 1139 2332.47 1141.51 2324.06H1140.68C1129.77 2332.47 1121.38 2340.01 1112.99 2349.24C1111.32 2351.77 1110.48 2350.07 1108.79 2349.24C1108.79 2344.19 1108.79 2340.01 1107.96 2328.26C1107.96 2326.59 1107.96 2314 1106.29 2311.47C1102.91 2317.53 1100.37 2324.02 1098.73 2330.77C1096.21 2335.81 1093.69 2342.52 1097.05 2346.72C1097.05 2347.55 1097.05 2347.55 1096.22 2347.55C1091.18 2346.72 1085.31 2344.18 1080.27 2342.51V2341.68C1086.99 2340 1091.18 2330.75 1094.55 2324.05C1097.07 2317.33 1101.27 2311.46 1103.77 2304.75C1102.94 2303.08 1100.41 2302.25 1098.74 2300.57C1094.55 2300.57 1093.71 2303.08 1089.5 2304.75C1088.67 2303.08 1089.5 2302.25 1089.5 2302.25C1093.71 2297.2 1098.74 2295.53 1103.77 2297.2C1107.97 2298.03 1114.68 2300.57 1114.68 2305.58C1117.19 2314.83 1117.19 2326.58 1117.19 2335.8V2337.47C1128.94 2328.25 1136.49 2319.03 1147.4 2314.83C1152.45 2314 1154.96 2314.83 1157.47 2316.5C1159.15 2316.5 1159.98 2319.03 1159.98 2320.7C1159.98 2321.55 1159.98 2321.55 1159.14 2321.55Z" fill="#0C0E0F"/>
<path fill-rule="evenodd" clip-rule="evenodd" d="M1067.65 2279.58C1067.65 2279.58 1084.43 2270.35 1100.39 2277.07L1379.86 2377.8L1650.94 2279.59C1678.63 2270.37 1694.56 2278.76 1694.56 2279.59V2374.42C1685.33 2368.55 1671.91 2365.2 1650.94 2372.75L1379.86 2468.43L1110.46 2370.22C1089.48 2361.84 1078.57 2368.55 1067.65 2374.42V2279.58ZM1051.71 2272.03C1051.71 2269.52 1078.57 2255.26 1110.46 2266.98L1379.86 2360.99L1650.94 2266.98C1682.81 2255.26 1710.52 2272.03 1710.52 2272.03V2397.09C1703.8 2393.72 1678.63 2377.8 1650.94 2387.02L1379.86 2482.7L1110.46 2386.19C1084.45 2376.94 1061.79 2393.74 1051.71 2397.11V2272.03Z" fill="#0C0E0F"/>
<path fill-rule="evenodd" clip-rule="evenodd" d="M1071.01 2283.78C1071.01 2283.78 1085.29 2276.23 1100.39 2281.27L1379.86 2381.97L1650.94 2283.79C1676.09 2276.24 1692.05 2281.29 1692.05 2282.12V2368.55C1682.81 2363.5 1671.08 2361 1650.94 2368.55L1379.86 2462.55L1110.46 2366.05C1091.15 2359.33 1082.76 2363.52 1071.01 2368.55V2283.78ZM1075.21 2286.28C1075.21 2286.28 1086.96 2279.56 1100.39 2284.61L1379.86 2386.16L1650.94 2288.81C1671.91 2281.26 1687.85 2283.77 1687.85 2284.61V2361.82C1680.3 2358.47 1667.71 2358.47 1650.94 2363.49L1379.86 2459.17L1110.46 2361.82C1091.99 2355.94 1086.96 2358.47 1075.21 2363.49V2286.28ZM1575.4 1565.38V1617.43L1555.27 1604.84V1578.83L1575.4 1565.38Z" fill="#B2A43F"/>
<path fill-rule="evenodd" clip-rule="evenodd" d="M1569.53 1576.29V1607.35L1555.27 1598.11V1584.68L1569.53 1576.29Z" fill="#0C0E0F"/>
<path fill-rule="evenodd" clip-rule="evenodd" d="M1568.7 1577.13V1605.68L1555.27 1597.29V1584.68L1568.7 1577.13Z" fill="#FAE935"/>
<path fill-rule="evenodd" clip-rule="evenodd" d="M1575.4 1466.36V1520.07L1555.27 1506.64V1478.94L1575.4 1466.36Z" fill="#B2A43F"/>
<path fill-rule="evenodd" clip-rule="evenodd" d="M1569.53 1478.11V1507.49L1555.27 1499.09V1485.66L1569.53 1478.11Z" fill="#0C0E0F"/>
<path fill-rule="evenodd" clip-rule="evenodd" d="M1568.7 1478.94V1506.64L1555.27 1497.41V1487.33L1568.7 1478.94Z" fill="#FAE935"/>
<path fill-rule="evenodd" clip-rule="evenodd" d="M1234.66 1455.44V1614.9C1285.85 1616.57 1351.32 1604.85 1358.03 1605.68C1372.3 1605.68 1379.86 1614.06 1381.53 1614.06C1381.53 1612.39 1389.09 1605.68 1398.31 1605.68C1411.74 1604.85 1474.68 1616.57 1528.41 1614.9V1457.12H1398.33C1385.73 1457.12 1381.54 1464.67 1381.54 1464.67C1379.87 1464.67 1374.83 1457.12 1363.08 1457.12L1234.66 1455.44Z" fill="#E7EEF3" stroke="#0C0E0F" stroke-width="9.15665" stroke-miterlimit="2.613"/>
<path fill-rule="evenodd" clip-rule="evenodd" d="M1154.11 1900.26L1176.76 1888.51L1165.86 1911.16L1191.87 1919.54L1165.86 1929.61L1176.76 1952.3L1154.11 1941.38L1145.7 1965.72L1136.48 1941.38L1111.31 1952.3L1124.73 1929.61L1098.71 1919.54L1124.73 1911.16L1112.98 1888.51L1136.48 1900.26L1145.7 1874.22L1154.11 1900.26ZM1389.09 1722.33L1412.61 1710.58L1400.84 1734.08L1427.7 1743.3L1400.84 1751.69L1412.61 1776.04L1389.09 1762.61L1381.54 1789.46L1372.31 1762.61L1347.12 1776.04L1360.55 1751.69L1334.54 1743.3L1360.55 1734.08L1348.81 1710.58L1372.31 1722.33L1381.54 1697.99L1389.09 1722.33ZM1624.07 1900.26L1647.58 1888.51L1634.99 1911.16L1661.83 1919.54L1634.99 1929.61L1647.58 1952.3L1624.07 1941.38L1614.84 1965.72L1606.47 1941.38L1582.12 1952.3L1594.72 1929.61L1568.7 1919.54L1594.72 1911.16L1582.12 1888.51L1606.47 1900.26L1614.84 1874.22L1624.07 1900.26ZM1389.09 2121.81L1412.61 2108.39L1400.84 2133.56L1427.7 2141.11L1400.84 2150.33L1412.61 2173.85L1389.09 2162.08L1381.54 2187.27L1372.31 2162.08L1347.12 2173.85L1360.55 2150.33L1334.54 2141.11L1360.55 2133.56L1348.81 2108.39L1372.31 2121.81L1381.54 2094.96L1389.09 2121.81Z" fill="#B2A43F"/>
<path fill-rule="evenodd" clip-rule="evenodd" d="M1156.62 1892.69L1183.47 1881.79L1173.41 1909.48L1201.11 1919.54L1173.41 1932.13L1183.47 1959L1156.62 1947.25L1145.71 1974.94L1133.96 1947.25L1106.27 1959L1117.18 1932.13L1089.48 1919.54L1117.18 1909.48L1106.27 1881.79L1133.96 1892.69L1145.71 1865L1156.62 1892.69ZM1154.11 1900.26L1175.92 1890.18L1164.17 1912L1189.35 1919.55L1164.17 1927.95L1175.92 1949.77L1154.11 1939.72L1145.71 1964.89L1136.48 1939.72L1112.98 1951.44L1126.42 1927.95L1101.24 1919.55L1126.42 1912L1114.67 1890.18L1136.48 1900.26L1145.71 1876.76L1154.11 1900.26Z" fill="#0C0E0F"/>
<path fill-rule="evenodd" clip-rule="evenodd" d="M1394.97 1707.21L1431.05 1692.11L1416.78 1729.05L1453.72 1743.32L1416.78 1757.58L1431.05 1792.85L1394.97 1778.55L1379.86 1815.49L1365.59 1778.55L1329.51 1792.85L1344.62 1757.58L1307.69 1743.32L1344.62 1729.05L1330.35 1692.11L1365.6 1707.21L1377.35 1680.36H1384.07L1394.97 1707.21ZM1393.28 1712.25L1424.33 1698.83L1412.61 1729.89L1445.33 1743.32L1412.61 1755.07L1424.33 1787.79L1393.28 1775.19L1381.53 1806.26L1368.11 1775.19L1335.37 1787.79L1348.8 1755.07L1318.59 1743.32L1348.8 1729.89L1335.37 1698.83L1368.11 1712.25L1379.02 1684.56H1383.2L1393.28 1712.25ZM1629.11 1883.47L1665.21 1869.2L1650.94 1905.27L1687.85 1919.54L1650.94 1934.66L1665.21 1970.73L1629.11 1956.46L1614.84 1991.72L1599.75 1956.46L1563.65 1970.73L1579.59 1934.66L1542.68 1919.54L1579.59 1905.27L1564.5 1869.2L1599.76 1883.47L1614.86 1848.2L1629.11 1883.47ZM1627.44 1888.51L1659.33 1875.92L1645.91 1908.64L1678.63 1919.54L1645.91 1932.98L1659.33 1964.88L1627.44 1952.28L1614.84 1982.48L1602.25 1951.42L1568.68 1964.86L1582.95 1932.97L1551.89 1919.52L1582.95 1906.95L1569.53 1875.89L1602.25 1888.49L1614.84 1855.76L1627.44 1888.51ZM1394.97 2104.17L1431.05 2089.91L1416.78 2126.84L1453.72 2141.11L1416.78 2155.38L1431.05 2192.32L1394.97 2178.05L1379.86 2213.29L1365.59 2178.05L1329.51 2192.32L1344.62 2155.38L1307.69 2141.11L1344.62 2126.84L1330.35 2089.91L1365.6 2104.17L1379.87 2068.93L1394.97 2104.17ZM1393.28 2110.06L1424.33 2096.64L1412.61 2127.7L1445.33 2141.12L1412.61 2154.55L1424.33 2185.61L1393.28 2172.19L1381.53 2204.08L1368.11 2172.19L1335.37 2185.61L1348.8 2154.55L1318.59 2141.12L1348.8 2127.7L1335.37 2096.64L1368.11 2110.06L1381.53 2077.34L1393.28 2110.06Z" fill="#FAE935"/>
<path fill-rule="evenodd" clip-rule="evenodd" d="M1391.61 1715.61L1419.31 1703.86L1409.23 1733.25L1436.08 1743.3L1409.23 1754.22L1419.31 1781.07L1391.61 1770.99L1381.54 1798.71L1369.79 1770.99L1340.42 1781.07L1353.01 1754.22L1325.32 1743.3L1353.01 1733.25L1342.1 1703.86L1369.79 1715.61L1381.54 1688.76L1391.61 1715.61ZM1389.09 1724L1411.74 1712.25L1400 1735.75L1424.33 1743.3L1400 1751.68L1411.74 1773.52L1389.09 1762.6L1381.53 1787.78L1372.3 1762.6L1348.8 1775.19L1362.23 1751.69L1337.06 1743.31L1362.23 1735.77L1350.48 1712.27L1372.31 1724.02L1381.54 1698.84L1389.09 1724ZM1626.61 1892.69L1653.46 1881.79L1641.7 1909.48L1669.4 1919.54L1641.7 1932.13L1653.46 1959L1626.61 1947.25L1614.86 1974.94L1603.94 1947.25L1575.42 1959L1587.17 1932.13L1559.45 1919.54L1587.17 1909.48L1576.25 1881.79L1603.94 1892.69L1614.86 1865L1626.61 1892.69ZM1624.07 1900.26L1645.91 1890.18L1634.16 1912L1659.33 1919.55L1634.16 1927.95L1645.91 1949.77L1624.07 1939.72L1614.84 1964.89L1606.47 1939.72L1582.96 1951.44L1594.72 1927.95L1571.21 1919.55L1594.72 1912L1584.64 1890.18L1606.48 1900.26L1614.86 1876.76L1624.07 1900.26ZM1391.61 2113.42L1419.31 2101.67L1409.23 2129.36L1436.08 2141.11L1409.23 2152.03L1419.31 2178.88L1391.61 2168.8L1381.54 2196.49L1369.79 2168.8L1340.42 2180.55L1353.01 2152.03L1325.32 2141.11L1353.01 2129.36L1342.1 2101.67L1369.79 2113.42L1381.54 2086.55L1391.61 2113.42ZM1389.09 2121.81L1411.74 2110.89L1400 2133.56L1424.33 2141.11L1400 2148.66L1411.74 2172.16L1389.09 2160.41L1381.53 2185.58L1372.3 2160.41L1348.8 2172.16L1362.23 2148.66L1337.06 2141.11L1362.23 2133.56L1350.48 2110.89L1372.31 2121.81L1381.54 2096.64L1389.09 2121.81Z" fill="#0C0E0F"/>
<path fill-rule="evenodd" clip-rule="evenodd" d="M1073.54 1807.09H1248.93V1679.52H1512.45V1807.09H1689.51V2068.93H1512.45V2255.24L1381.53 2302.23L1248.93 2255.24V2068.93H1073.54V1807.09ZM1078.57 1812.96H1254.8V1684.56H1507.42V1812.96H1682.81V2063.9H1507.42V2251.06L1381.53 2295.54L1254.8 2251.06V2063.9H1078.57V1812.96Z" fill="#FAE935"/>
<path fill-rule="evenodd" clip-rule="evenodd" d="M1206.98 2021.09C1216.21 2010.19 1201.11 2006.82 1195.23 2007.66C1198.59 2000.12 1208.66 1993.4 1216.21 1997.61C1222.09 1993.41 1227.96 1993.41 1229.64 2000.96C1232.16 2009.34 1239.71 2010.21 1246.42 2010.21C1259.85 2010.21 1267.41 2000.13 1264.89 1988.37C1264.89 1984.19 1267.41 1976.62 1271.61 1972.43C1272.44 1970.73 1257.33 1970.73 1254.83 1959C1248.11 1963.18 1231.33 1965.72 1227.14 1959C1227.97 1958.17 1239.72 1953.96 1237.2 1949.75C1232.17 1947.25 1231.33 1949.75 1227.14 1949.75C1227.14 1944.71 1236.37 1941.38 1234.69 1939.7C1232.17 1935.5 1227.97 1939.7 1224.62 1939.7C1227.14 1935.5 1229.67 1932.13 1229.67 1927.95C1227.98 1922.91 1222.11 1922.91 1216.23 1923.75C1215.4 1918.71 1227.15 1913.7 1224.62 1909.48C1222.95 1908.65 1219.59 1909.48 1216.23 1908.65C1216.23 1908.65 1217.92 1908.65 1217.92 1906.98C1220.43 1905.28 1222.95 1902.78 1222.95 1900.26C1222.95 1897.73 1217.92 1897.73 1215.39 1897.73C1219.59 1888.51 1225.45 1888.51 1233.86 1883.47C1234.69 1880.94 1234.69 1878.42 1232.18 1878.42C1227.15 1878.42 1222.95 1875.92 1220.43 1870.04C1220.43 1869.21 1219.59 1867.51 1220.43 1866.67C1222.95 1866.67 1225.47 1866.67 1227.98 1865C1231.34 1864.17 1229.67 1862.49 1227.98 1860.8C1225.47 1859.97 1222.11 1862.49 1219.59 1859.97C1215.39 1859.97 1217.92 1854.95 1213.72 1854.95C1204.48 1853.25 1204.48 1839.82 1209.51 1834.78C1209.51 1834.78 1217.9 1846.53 1219.59 1838.98C1219.59 1831.43 1212.87 1827.23 1206.17 1825.56C1213.73 1817.18 1225.47 1822.18 1229.67 1825.56C1232.18 1827.23 1233.86 1825.56 1236.39 1825.56C1236.39 1824.73 1238.9 1823.05 1237.22 1820.51C1234.7 1815.47 1232.18 1815.47 1227.98 1813.79C1234.7 1807.07 1248.97 1810.45 1254.84 1819.67C1257.36 1823.04 1264.08 1822.17 1264.08 1828.05C1264.08 1833.92 1258.2 1828.05 1258.2 1854.92C1258.2 1869.19 1267.44 1885.96 1269.95 1884.28C1271.63 1881.78 1272.47 1879.24 1274.14 1875.9C1274.14 1875.9 1271.63 1875.9 1271.63 1874.21C1272.46 1866.66 1276.66 1859.94 1280.85 1853.23H1274.97C1274.97 1848.19 1280.85 1843.18 1285.04 1838.97C1285.04 1837.29 1278.32 1837.29 1276.64 1834.76C1278.32 1832.26 1285.87 1825.54 1285.87 1824.71C1283.35 1822.18 1281.68 1822.18 1280.83 1819.67C1281.68 1817.16 1290.07 1815.47 1292.58 1808.75C1292.58 1807.07 1288.4 1804.57 1287.55 1804.57C1288.4 1803.74 1292.58 1804.57 1296.79 1804.57C1305.18 1803.74 1311.05 1804.57 1311.05 1804.57C1311.9 1803.74 1309.38 1801.2 1309.38 1798.7C1316.1 1799.53 1320.29 1798.7 1321.13 1791.98C1322.8 1791.98 1323.65 1794.48 1326.16 1794.48C1332.88 1797.01 1340.43 1801.2 1346.31 1807.07C1353.02 1802.03 1362.25 1802.03 1369.81 1802.03C1373.17 1801.2 1374.85 1802.03 1376.52 1802.03C1369.81 1810.43 1384.09 1810.43 1390.8 1806.23C1397.52 1815.45 1397.52 1822.17 1390.8 1829.73C1394.99 1832.24 1398.35 1839.78 1400.03 1838.95C1409.26 1827.2 1428.56 1823.01 1426.06 1815.45C1423.53 1807.07 1416.81 1807.07 1410.1 1807.07C1411.78 1802.03 1419.35 1802.03 1428.57 1802.03C1428.57 1798.68 1427.74 1795.31 1428.57 1792.81C1442.84 1795.31 1448.71 1811.28 1457.09 1812.95C1465.5 1813.78 1474.72 1808.75 1481.44 1803.73H1482.27C1481.44 1819.67 1498.22 1807.07 1503.27 1810.45C1504.1 1824.71 1479.76 1828.05 1477.25 1834.76C1474.72 1841.48 1479.75 1843.17 1481.42 1845.69C1479.75 1846.52 1470.53 1846.52 1471.37 1850.73C1475.55 1855.78 1486.47 1853.23 1487.31 1849.9C1491.51 1841.5 1484.81 1838.98 1484.81 1837.31C1486.48 1836.48 1489.85 1838.98 1493.19 1836.48C1494.02 1833.95 1491.51 1832.27 1491.51 1831.43C1496.56 1832.26 1501.57 1836.48 1510.81 1833.93C1514.16 1832.26 1510.81 1829.76 1512.49 1827.22C1517.53 1828.05 1522.56 1833.93 1526.75 1836.46C1530.96 1834.76 1529.28 1829.75 1528.45 1823.04C1533.47 1822.18 1538.5 1837.31 1545.22 1838.98C1547.73 1839.81 1550.27 1836.48 1550.27 1833.93C1551.94 1833.93 1551.94 1834.76 1551.94 1836.46C1561.19 1869.19 1571.24 1837.29 1576.29 1843.18C1577.96 1843.18 1576.29 1844.01 1576.29 1844.01C1573.78 1846.52 1572.91 1852.39 1573.78 1855.76C1579.63 1875.9 1558.66 1880.91 1559.49 1880.91C1561.19 1925.4 1515 1926.25 1491.53 1921.21C1498.25 1935.48 1515.02 1937.15 1516.7 1949.73C1517.53 1953.93 1519.21 1965.68 1522.58 1969.87C1529.3 1974.07 1541.02 1967.37 1546.9 1963.15C1556.97 1964.85 1556.97 1970.7 1558.65 1972.4C1568.72 1974.07 1576.27 1967.35 1585.49 1964.85C1588.02 1967.35 1580.47 1976.58 1584.66 1974.9C1585.49 1974.9 1585.49 1974.07 1587.19 1974.9C1588.02 1979.95 1584.66 1984.98 1585.49 1988.33C1587.19 1989.16 1588.02 1989.16 1591.37 1990.86C1589.7 1993.36 1587.19 1991.69 1584.65 1997.57C1585.48 1998.4 1591.37 1998.4 1593.9 1998.4C1591.37 2003.42 1582.15 2009.3 1580.47 2011.83C1582.15 2012.66 1585.49 2012.66 1587.19 2012.66C1587.19 2016.86 1579.62 2017.7 1577.95 2021.04C1579.62 2021.87 1580.47 2021.87 1582.15 2023.57C1579.62 2026.91 1568.72 2031.11 1571.23 2032.79C1572.9 2033.62 1575.43 2035.32 1577.95 2036.16C1569.57 2042.88 1564.52 2044.54 1555.3 2044.54C1555.3 2047.88 1555.3 2050.41 1551.93 2053.76C1550.25 2056.29 1545.21 2058.8 1541.01 2058.8C1543.54 2050.43 1541.01 2042.86 1534.29 2042.86C1534.29 2044.54 1533.46 2044.54 1533.46 2045.37C1535.99 2053.75 1531.79 2062.16 1520.04 2061.31C1514.99 2068.05 1499.06 2068.05 1491.51 2058.8V2056.3C1498.23 2056.3 1501.57 2056.3 1507.45 2053.77C1507.45 2050.43 1507.45 2049.6 1505.78 2047.9C1499.06 2047.07 1491.51 2050.43 1484.81 2053.77C1483.98 2044.55 1489.85 2032.8 1498.23 2032.8C1500.74 2024.42 1501.58 2026.92 1501.58 2024.42C1498.23 2021.89 1491.53 2021.05 1486.48 2021.05C1484.81 2021.05 1483.98 2021.88 1482.28 2021.05C1489 2007.63 1499.08 2006.78 1507.45 2010.16C1509.98 2007.63 1514.17 2005.11 1516.7 2006.78C1521.75 2006.78 1522.58 2015.16 1525.92 2017.7C1530.97 2019.38 1536.84 2011.83 1536.84 2006.78C1536.84 1995.86 1519.22 1994.19 1510 1995.86C1501.59 1997.56 1494.04 1995.86 1486.5 1990.84C1481.45 1986.64 1475.57 1982.44 1470.56 1977.42C1468.86 1976.56 1468.86 1977.42 1468.86 1979.09C1468.03 1982.44 1465.51 1988.31 1468.86 1993.36C1473.06 1995.86 1481.45 1998.4 1482.28 2005.11C1481.45 2007.61 1481.45 2011.83 1478.1 2014.33C1474.73 2016.86 1468.86 2019.38 1468.86 2024.41C1468.03 2031.13 1468.86 2032.79 1474.73 2039.51C1468.86 2042.03 1461.31 2039.51 1457.11 2037.83C1456.28 2037.83 1452.09 2045.38 1451.26 2047.88C1447.05 2049.58 1444.54 2039.51 1442.85 2040.34C1442.02 2042.03 1437.81 2047.05 1437.81 2049.58C1435.3 2050.41 1432.79 2040.34 1431.09 2039.51C1428.59 2042.03 1426.07 2045.38 1426.07 2049.58C1423.54 2047.88 1421.87 2045.38 1419.35 2042.86C1415.98 2047.04 1410.1 2049.58 1405.07 2047.88C1403.4 2047.05 1407.59 2042.86 1405.9 2042.03C1405.9 2040.34 1405.07 2042.03 1405.07 2042.03C1402.55 2045.38 1386.62 2045.38 1386.62 2042.03C1390.82 2039.51 1395.01 2035.32 1393.33 2031.11C1393.33 2028.61 1391.66 2029.42 1390.82 2029.42C1385.77 2032.79 1383.26 2039.49 1377.38 2042.86C1372.35 2045.37 1368.16 2044.54 1365.63 2040.34C1358.07 2039.51 1351.36 2039.51 1344.64 2045.38C1344.64 2044.55 1343.8 2044.55 1343.8 2044.55C1346.32 2031.13 1350.52 2028.61 1358.07 2026.08C1358.07 2023.58 1358.07 2021.04 1355.55 2017.7C1351.36 2015.17 1344.65 2016.87 1340.44 2019.38C1337.93 2016.87 1346.32 1998.4 1358.07 2005.11C1358.91 2005.11 1358.91 2003.41 1360.58 2002.58C1358.07 1994.2 1353.04 1994.2 1347.16 1997.56C1346.33 1986.64 1358.91 1979.09 1367.3 1984.14C1368.15 1982.44 1370.66 1982.44 1372.34 1981.61C1379.05 1981.61 1379.9 1988.33 1384.09 1990.86C1386.6 1991.69 1393.31 1993.36 1395.84 1997.57C1400.03 2003.42 1403.39 2003.42 1411.78 2005.12C1416.82 2005.12 1421.85 2005.12 1426.07 2003.42C1435.29 2000.92 1435.29 1989.16 1428.57 1989.16C1419.35 1988.33 1411.78 1990.86 1403.4 1988.33C1390.82 1984.98 1386.62 1981.61 1386.62 1967.35C1377.38 1970.7 1353.05 1979.11 1347.16 1979.95C1344.65 1984.15 1340.44 1984.99 1335.41 1986.67C1332.89 1988.34 1340.44 1995.89 1340.44 1995.89C1340.44 1998.42 1321.14 2007.64 1322.83 2007.64C1323.66 2009.31 1325.35 2009.31 1326.19 2010.17C1326.19 2012.67 1318.63 2012.67 1317.8 2014.34C1318.64 2015.17 1320.31 2016.87 1321.16 2016.87C1317.8 2021.05 1311.08 2019.38 1306.89 2023.59C1304.37 2024.42 1300.17 2026.09 1296.81 2026.94C1293.45 2028.64 1297.66 2031.14 1296.81 2032.81C1275 2037.86 1271.64 2028.64 1266.59 2029.44C1264.08 2029.44 1260.72 2032.81 1258.2 2035.34C1259.87 2042.89 1253.17 2056.31 1243.93 2056.31C1241.42 2053.79 1246.45 2050.44 1243.93 2045.39C1243.93 2044.56 1242.26 2044.56 1241.42 2044.56C1237.23 2044.56 1238.92 2057.16 1229.68 2054.62C1227.99 2054.62 1227.16 2052.11 1225.48 2053.79C1215.41 2058.83 1209.54 2061.33 1198.63 2052.11C1217.93 2047.07 1220.46 2028.62 1192.76 2035.34C1194.39 2024.46 1201.1 2021.09 1206.98 2021.09ZM1395.81 1874.22C1395.81 1872.55 1395.81 1872.55 1397.48 1872.55C1403.36 1887.64 1419.31 1888.5 1433.58 1885.97C1460.43 1881.79 1493.99 1866.67 1516.66 1866.67C1524.21 1866.67 1542.68 1870.04 1542.68 1881.79C1542.68 1890.17 1540.15 1895.22 1534.28 1899.39C1526.73 1904.44 1507.43 1906.97 1499.04 1906.97C1493.99 1906.97 1474.69 1905.27 1468.82 1897.72C1465.47 1895.22 1460.44 1893.52 1454.55 1893.52C1436.08 1893.52 1415.94 1904.44 1400 1904.44C1395.81 1904.44 1394.97 1880.94 1395.81 1874.22ZM1436.08 1841.5C1442.8 1846.54 1448.68 1855.79 1458.75 1860.8C1458.75 1862.49 1438.61 1869.2 1431.04 1869.2C1416.77 1869.2 1412.59 1862.48 1412.59 1855.78C1412.61 1848.2 1426.03 1836.48 1436.08 1841.5Z" fill="#B2A43F"/>
<path fill-rule="evenodd" clip-rule="evenodd" d="M1504.07 2012.71C1503.14 2014.91 1502.29 2017.16 1501.54 2019.43C1498.19 2016.93 1495.67 2016.93 1488.95 2017.76C1489.82 2014.38 1499.04 2007.66 1504.07 2012.71ZM1498.19 2036.21C1497.6 2037.27 1497.36 2038.5 1497.51 2039.71C1497.66 2040.91 1498.19 2042.04 1499.02 2042.93C1500.7 2045.43 1493.15 2044.6 1488.95 2047.11C1488.95 2044.6 1493.16 2036.21 1498.19 2036.21ZM1508.26 2056.35C1509.96 2057.18 1510.79 2058.86 1512.46 2059.7C1510.79 2062.23 1499.04 2063.9 1498.19 2058.87C1501.54 2058.86 1505.74 2058.86 1508.26 2056.35ZM1358.89 2031.18C1358.89 2032.85 1358.89 2033.68 1360.56 2036.22H1358.89C1353.01 2036.22 1351.32 2037.9 1347.14 2039.57C1347.12 2035.38 1355.51 2028.66 1358.89 2031.18ZM1356.36 2007.66C1358.03 2009.34 1356.36 2007.66 1356.36 2014.38H1353.84C1350.48 2012.71 1347.12 2012.71 1344.62 2014.38C1346.29 2009.34 1353 2007.66 1356.36 2007.66ZM1364.75 1988.37C1363.08 1990.89 1362.23 1993.41 1362.23 1994.24C1362.23 1995.91 1360.55 1994.24 1360.55 1994.24C1358.03 1993.41 1355.51 1991.74 1353 1991.74C1355.51 1988.37 1362.23 1985.02 1364.75 1988.37ZM1321.12 1870.04C1321.12 1869.21 1322.79 1870.04 1322.79 1870.04C1321.12 1875.92 1320.27 1880.94 1320.27 1884.31C1320.27 1885.98 1321.12 1885.98 1321.12 1885.98C1323.63 1881.81 1327.84 1867.51 1329.51 1871.72C1332.87 1880.94 1321.12 1895.22 1318.6 1893.53C1317.76 1893.52 1314.4 1878.42 1321.12 1870.04ZM1248.93 1819.68H1248.09C1245.58 1819.68 1243.9 1822.18 1241.37 1819.68C1239.69 1817.18 1238.86 1815.48 1237.18 1813.81C1241.38 1812.96 1245.58 1815.48 1248.93 1819.68ZM1215.36 1824.73C1219.56 1823.05 1225.43 1824.73 1227.11 1827.23C1227.11 1828.06 1224.6 1832.27 1222.91 1831.43C1219.56 1824.73 1212.85 1825.56 1215.36 1824.73ZM1211.17 1841.5C1211.17 1841.5 1212.85 1844.03 1216.21 1846.54C1217.89 1848.21 1216.21 1850.74 1216.21 1852.42C1212.85 1852.4 1208.66 1843.18 1211.17 1841.5ZM1213.69 2000.12C1215.36 2000.95 1212.85 2003.46 1211.17 2005.16C1211.17 2006.83 1206.98 2003.46 1201.94 2003.46C1204.45 2000.12 1209.49 2000.12 1213.69 2000.12ZM1216.21 2045.43C1217.89 2044.6 1220.41 2050.48 1219.56 2050.48C1216.21 2054.65 1208.66 2053.82 1206.14 2052.15C1209.49 2050.48 1212.85 2047.95 1216.21 2045.43ZM1208.66 2024.46V2029.48C1204.47 2028.68 1203.62 2028.68 1198.59 2029.48C1199.42 2024.46 1206.98 2023.63 1208.66 2024.46Z" fill="#00AAE8"/>
<path fill-rule="evenodd" clip-rule="evenodd" d="M1389.09 1553.65H1390.78V1609.03H1389.09V1553.65Z" fill="#0C0E0F"/>
<path fill-rule="evenodd" clip-rule="evenodd" d="M1224.6 1625.82V1457.12H1233.83V1616.56C1281.66 1617.42 1346.29 1607.34 1353.84 1607.34C1369.78 1605.67 1379.86 1614.89 1381.54 1617.42C1383.22 1614.89 1390.78 1605.67 1400 1607.34C1440.28 1609.84 1482.24 1617.42 1529.26 1617.42V1457.11H1540.15V1625.8H1224.6V1625.82Z" fill="#B2A43F"/>
<path fill-rule="evenodd" clip-rule="evenodd" d="M1389.09 1455.44H1390.78V1515.88H1389.09V1455.44ZM1514.13 1553.65C1509.96 1552.8 1504.08 1553.65 1499.04 1552.8C1500.71 1549.44 1501.54 1546.93 1500.71 1544.41C1500.71 1543.57 1499.04 1540.21 1498.21 1537.69C1494 1537.69 1489.83 1536.85 1486.46 1537.69C1484.78 1537.69 1484.78 1540.21 1484.78 1541.88C1483.95 1546.08 1484.78 1548.6 1487.29 1552.79L1486.46 1553.63H1473.03C1466.33 1553.63 1458.77 1553.63 1458.77 1552.79C1462.94 1548.59 1462.94 1543.55 1462.94 1534.33C1462.94 1527.61 1463.8 1520.05 1460.44 1518.39C1460.44 1517.55 1458.77 1517.55 1458.77 1517.55C1458.77 1515.88 1460.44 1515.88 1461.27 1515.88H1473.02L1474.69 1517.55C1474.69 1518.39 1471.35 1518.39 1471.35 1520.07C1468.82 1522.58 1468.82 1527.63 1468.82 1532.66C1468.82 1540.22 1468.82 1548.6 1473.02 1552.8H1474.69C1481.41 1546.93 1484.77 1530.14 1488.96 1522.58C1487.29 1520.07 1483.94 1520.91 1483.94 1520.91C1481.41 1520.91 1479.74 1522.58 1478.06 1522.58C1478.06 1520.91 1481.41 1520.07 1482.24 1518.39C1483.94 1517.55 1484.77 1517.55 1487.29 1515.88C1491.49 1515.88 1495.66 1515.88 1498.21 1520.07C1500.71 1522.58 1501.55 1527.63 1504.08 1531.82C1507.43 1539.38 1509.96 1546.93 1516.68 1552.8C1516.66 1553.65 1514.96 1553.65 1514.13 1553.65ZM1487.27 1534.33C1488.95 1530.13 1489.8 1527.61 1491.48 1523.41C1493.15 1523.41 1496.52 1532.65 1496.52 1534.33H1487.27ZM1456.22 1527.63C1454.55 1527.63 1453.72 1525.94 1453.72 1525.11C1451.22 1522.6 1451.22 1520.07 1447 1518.39H1442.8C1442.8 1529.3 1440.3 1546.93 1447 1552.8C1447 1555.32 1444.5 1553.65 1442.8 1553.65H1431.05C1430.22 1552.8 1431.05 1551.13 1432.75 1549.44C1437.77 1541.89 1436.09 1530.14 1436.09 1520.07C1435.26 1518.39 1433.59 1518.39 1432.75 1518.39C1428.55 1520.07 1426.03 1523.43 1424.34 1527.63C1424.34 1529.3 1423.51 1529.3 1423.51 1527.63V1515.88H1456.25V1522.6C1456.22 1523.43 1456.22 1525.94 1456.22 1527.63Z" fill="#0C0E0F"/>
<path fill-rule="evenodd" clip-rule="evenodd" d="M1418.46 1518.39C1416.78 1518.39 1416.78 1520.07 1416.78 1520.91C1412.61 1529.3 1414.28 1537.69 1414.28 1546.93V1552.8C1414.28 1553.65 1412.61 1552.8 1411.75 1552.8C1403.37 1544.41 1398.33 1534.35 1390.78 1525.11C1389.11 1525.11 1389.11 1525.94 1389.11 1525.94C1389.11 1532.66 1390.78 1540.21 1390.78 1546.93C1391.61 1549.44 1394.97 1551.13 1394.97 1552.8C1391.61 1553.65 1386.58 1552.8 1384.06 1552.8H1381.54C1389.11 1546.93 1386.58 1530.14 1386.58 1522.58C1385.73 1520.91 1384.06 1520.91 1383.22 1520.91C1379.87 1522.58 1377.34 1525.94 1377.34 1529.3H1376.5C1373.14 1527.63 1373.14 1523.43 1372.31 1522.58C1370.64 1520.91 1369.79 1520.07 1368.12 1520.07H1356.37V1530.14C1358.04 1531.82 1362.24 1531.82 1363.09 1530.14C1364.76 1529.3 1365.6 1527.63 1368.13 1527.63V1537.69C1367.29 1539.37 1367.29 1536.85 1365.62 1536.85C1364.77 1535.18 1362.26 1534.33 1358.9 1532.65C1358.9 1534.33 1356.38 1532.65 1356.38 1534.33V1546.91C1358.06 1551.12 1365.62 1549.43 1367.29 1549.43C1369.81 1549.43 1372.32 1548.6 1373.17 1546.08C1374.85 1544.41 1374.85 1541.88 1377.37 1540.21V1539.38V1549.44C1377.37 1551.13 1376.52 1552.8 1374.85 1552.8H1346.32C1353.04 1548.6 1350.51 1525.11 1348.83 1520.91C1347.16 1520.07 1346.32 1518.39 1344.65 1517.55C1344.65 1515.88 1346.32 1515.88 1347.16 1515.88C1355.55 1517.55 1365.63 1517.55 1373.18 1515.88C1374.86 1517.55 1376.54 1517.55 1376.54 1518.39C1377.38 1520.07 1377.38 1520.91 1377.38 1520.91C1379.05 1520.91 1379.9 1518.39 1381.58 1518.39C1384.1 1515.88 1386.62 1515.88 1389.14 1517.55C1400.05 1520.07 1405.08 1535.18 1410.12 1540.21H1411.79C1411.79 1535.18 1411.79 1530.14 1410.12 1523.43C1410.12 1520.91 1407.6 1518.39 1405.08 1517.55C1405.08 1515.88 1405.91 1515.88 1405.91 1515.88H1419.36C1419.36 1515.88 1421.04 1515.88 1419.36 1517.55C1419.31 1517.55 1419.31 1517.55 1418.46 1518.39ZM1337.89 1518.39C1335.37 1522.58 1335.37 1529.3 1335.37 1534.33C1335.37 1540.21 1334.54 1546.91 1339.57 1551.12V1552.79C1335.37 1552.79 1329.51 1552.79 1326.15 1553.63C1325.31 1552.79 1325.31 1552.79 1325.31 1551.12C1326.15 1549.43 1329.51 1548.6 1329.51 1546.91C1330.34 1543.55 1330.34 1527.61 1330.34 1525.1C1329.51 1522.58 1329.51 1520.05 1326.15 1518.38C1326.15 1518.38 1325.31 1518.38 1325.31 1517.54C1325.31 1517.54 1325.31 1515.86 1326.15 1515.86C1330.34 1517.54 1335.37 1515.86 1340.42 1515.86C1342.09 1517.55 1339.57 1518.39 1337.89 1518.39ZM1311.04 1552.8C1305.17 1553.65 1295.1 1552.8 1290.06 1548.6C1285.02 1543.57 1281.66 1535.18 1285.02 1529.3C1285.02 1523.43 1290.06 1518.39 1293.41 1517.55C1299.29 1515.88 1305.17 1514.19 1309.35 1515.88C1311.03 1517.55 1313.56 1517.55 1314.39 1517.55C1316.06 1517.55 1317.75 1515.88 1318.59 1515.88L1320.26 1517.55C1320.26 1520.91 1318.59 1523.43 1318.59 1527.63C1318.59 1529.3 1320.26 1530.14 1318.59 1530.14C1316.07 1530.14 1316.07 1527.63 1316.07 1525.94C1311.88 1520.91 1311.04 1518.39 1304.32 1518.39C1300.13 1517.55 1295.09 1520.07 1293.41 1523.43C1290.06 1530.14 1290.9 1539.38 1295.09 1544.41C1299.28 1548.6 1302.65 1549.44 1307.68 1548.6C1311.04 1546.93 1314.4 1544.41 1316.07 1540.21H1318.59C1318.59 1540.21 1320.26 1541.88 1320.26 1543.57C1320.27 1546.93 1314.4 1549.43 1311.04 1552.8ZM1280.82 1529.3C1278.3 1525.11 1276.63 1520.07 1271.6 1518.39C1269.93 1517.55 1267.4 1518.39 1266.55 1520.07C1264.88 1522.58 1264.88 1525.94 1266.55 1527.63C1271.6 1531.82 1283.34 1535.18 1281.66 1544.41C1280.82 1548.6 1278.3 1552.8 1274.1 1553.65C1267.38 1555.32 1262.35 1552.8 1257.32 1548.6H1255.65C1254.75 1551.34 1252.98 1553.7 1250.6 1555.32H1248.93C1250.6 1548.6 1252.29 1543.57 1254.8 1539.38C1254.8 1539.38 1254.8 1540.21 1255.65 1540.21C1257.32 1546.08 1262.36 1549.43 1266.55 1549.43C1271.6 1551.12 1274.95 1546.08 1271.6 1540.21C1269.08 1536.85 1262.36 1535.18 1258.16 1529.3C1257.32 1525.94 1257.32 1522.58 1259.84 1520.07C1264.04 1513.35 1271.59 1514.19 1276.62 1517.55C1279.13 1517.55 1280.81 1515.88 1281.65 1515.88C1281.66 1517.55 1281.66 1527.63 1280.82 1529.3Z" fill="#0C0E0F"/>
<path fill-rule="evenodd" clip-rule="evenodd" d="M1209.49 1640.08V1457.12H1222.08V1628.32H1542.68V1457.12H1554.41V1640.08H1209.49Z" fill="#D06332"/>
<path fill-rule="evenodd" clip-rule="evenodd" d="M1206.98 1572.11V1609.86L1174.25 1591.39L1206.98 1572.11ZM1206.98 1473.91V1511.67L1174.25 1492.38L1206.98 1473.91Z" fill="#B2A43F"/>
<path fill-rule="evenodd" clip-rule="evenodd" d="M1196.91 1583.84C1201.11 1583.84 1203.62 1588.04 1203.62 1591.39C1203.62 1595.59 1201.11 1598.11 1196.91 1598.11C1192.7 1598.11 1189.35 1595.6 1189.35 1591.39C1189.35 1588.05 1192.7 1583.84 1196.91 1583.84Z" fill="#0C0E0F"/>
<path fill-rule="evenodd" clip-rule="evenodd" d="M1196.91 1584.68C1201.11 1584.68 1203.62 1588.05 1203.62 1591.4C1203.62 1595.6 1201.11 1598.12 1196.91 1598.12C1192.7 1598.12 1190.19 1595.62 1190.19 1591.4C1190.19 1588.05 1192.7 1584.68 1196.91 1584.68Z" fill="#FAE935"/>
<path fill-rule="evenodd" clip-rule="evenodd" d="M1196.91 1485.66C1201.11 1485.66 1203.62 1488.17 1203.62 1492.38C1203.62 1496.58 1201.11 1499.94 1196.91 1499.94C1192.7 1499.94 1189.35 1496.58 1189.35 1492.38C1189.35 1488.17 1192.7 1485.66 1196.91 1485.66Z" fill="#0C0E0F"/>
<path fill-rule="evenodd" clip-rule="evenodd" d="M1196.91 1485.66C1201.11 1485.66 1203.62 1489.86 1203.62 1492.38C1203.62 1496.58 1201.11 1499.09 1196.91 1499.09C1192.7 1499.09 1190.19 1496.58 1190.19 1492.38C1190.19 1489.86 1192.7 1485.66 1196.91 1485.66Z" fill="#FAE935"/>
<path fill-rule="evenodd" clip-rule="evenodd" d="M1393.28 1810.46C1393.28 1808.76 1391.61 1807.09 1390.77 1806.26C1384.05 1810.46 1369.78 1810.46 1376.49 1802.05C1374.81 1802.05 1373.13 1801.22 1369.77 1802.05C1362.22 1802.05 1352.98 1802.05 1346.27 1807.1C1340.39 1801.22 1332.84 1797.05 1326.12 1794.51C1323.61 1794.51 1322.76 1792 1321.09 1792C1320.25 1798.72 1316.05 1799.55 1309.34 1798.72C1309.34 1801.22 1311.86 1803.77 1311.01 1804.6C1311.01 1804.6 1305.14 1803.77 1296.75 1804.6C1292.55 1804.6 1288.36 1803.77 1287.51 1804.6C1288.36 1804.6 1292.55 1807.1 1292.55 1808.77C1290.03 1815.49 1281.64 1817.18 1280.79 1819.69C1281.64 1822.2 1283.31 1822.2 1285.83 1824.74C1285.83 1825.57 1278.28 1832.29 1276.61 1834.79C1278.28 1837.32 1285 1837.32 1285 1838.99C1280.79 1843.19 1274.93 1848.21 1274.93 1853.26H1280.81C1276.62 1859.98 1272.42 1866.68 1271.59 1874.23C1271.59 1875.93 1274.1 1875.93 1274.1 1875.93C1272.43 1879.28 1271.59 1881.81 1269.91 1884.31C1267.4 1885.98 1258.16 1869.21 1258.16 1854.95C1258.16 1828.07 1264.04 1833.95 1264.04 1828.07C1264.04 1822.2 1257.32 1823.05 1254.8 1819.69C1248.93 1810.47 1234.66 1807.1 1227.94 1813.82C1232.15 1815.49 1234.66 1815.49 1237.18 1820.54C1238.86 1823.07 1236.35 1824.74 1236.35 1825.58C1233.83 1825.58 1232.15 1827.26 1229.63 1825.58C1225.43 1822.21 1213.69 1817.2 1206.13 1825.58C1212.85 1827.26 1219.55 1831.46 1219.55 1839.01C1217.88 1846.55 1209.47 1834.8 1209.47 1834.8C1204.44 1839.85 1204.44 1853.27 1213.68 1854.97C1217.87 1854.97 1215.35 1859.99 1219.55 1859.99C1222.07 1862.52 1225.43 1859.99 1227.94 1860.82C1229.63 1862.52 1231.3 1864.19 1227.94 1865.02C1225.43 1866.7 1222.91 1866.7 1220.39 1866.7C1219.55 1867.53 1220.39 1869.23 1220.39 1870.07C1222.91 1875.94 1227.11 1878.45 1232.15 1878.45C1234.66 1878.45 1234.66 1880.95 1233.82 1883.49C1225.43 1888.54 1219.55 1888.54 1215.35 1897.76C1217.87 1897.76 1222.91 1897.76 1222.91 1900.29C1222.91 1902.79 1220.39 1905.31 1217.88 1907.01C1217.88 1908.68 1216.19 1908.68 1216.19 1908.68C1219.55 1909.51 1222.91 1908.68 1224.58 1909.51C1227.1 1913.71 1215.35 1918.73 1216.19 1923.78C1222.08 1922.95 1227.94 1922.95 1229.63 1927.98C1229.63 1932.15 1227.11 1935.53 1224.58 1939.73C1227.94 1939.73 1232.15 1935.53 1234.65 1939.73C1236.33 1941.4 1227.1 1944.75 1227.1 1949.78C1231.29 1949.78 1232.13 1947.28 1237.16 1949.78C1239.68 1953.98 1227.93 1958.19 1227.1 1959.03C1231.29 1965.75 1248.07 1963.2 1254.79 1959.03C1257.31 1970.75 1272.42 1970.75 1271.57 1972.45C1267.37 1976.63 1264.86 1984.2 1264.86 1988.39C1267.37 2000.14 1259.81 2010.23 1246.39 2010.23C1239.67 2010.23 1232.12 2009.38 1229.6 2000.99C1227.92 1993.44 1222.04 1993.44 1216.17 1997.64C1208.62 1993.44 1198.55 2000.14 1195.19 2007.69C1201.07 2006.86 1216.17 2010.22 1206.94 2021.11C1201.07 2021.11 1194.35 2024.49 1192.67 2035.41C1220.37 2028.69 1217.84 2047.13 1198.54 2052.18C1209.45 2061.4 1215.32 2058.9 1225.39 2053.85C1227.07 2052.18 1227.9 2054.68 1229.59 2054.68C1238.82 2057.21 1237.14 2044.63 1241.33 2044.63C1242.17 2044.63 1243.84 2044.63 1243.84 2045.46C1246.36 2050.5 1241.33 2053.84 1243.84 2056.38C1253.08 2056.38 1259.78 2042.96 1258.11 2035.41C1260.63 2032.88 1263.99 2029.51 1266.5 2029.51C1271.55 2028.7 1274.89 2037.91 1296.72 2032.88C1297.56 2031.2 1293.36 2028.7 1296.72 2027C1300.08 2026.17 1304.28 2024.5 1306.8 2023.66C1310.99 2019.45 1317.71 2021.13 1321.07 2016.94C1320.22 2016.94 1318.55 2015.24 1317.71 2014.41C1318.55 2012.74 1326.1 2012.74 1326.1 2010.23C1325.26 2009.38 1323.58 2009.38 1322.74 2007.7C1321.07 2007.7 1340.35 1998.48 1340.35 1995.95C1340.35 1995.95 1332.8 1988.4 1335.32 1986.73C1340.35 1985.06 1344.55 1984.23 1347.07 1980.01C1352.95 1979.18 1377.29 1970.77 1386.52 1967.42C1386.52 1976.64 1388.2 1981.69 1391.56 1984.22L1393.23 1955.67C1390.71 1956.5 1388.2 1958.2 1384.01 1959.04H1383.17C1385.68 1955.67 1390.73 1951.47 1393.24 1946.45C1383.17 1951.47 1376.46 1958.2 1362.19 1964.92C1358.83 1964.92 1358.83 1965.75 1358.83 1964.92C1360.51 1959.04 1363.02 1958.2 1365.55 1949.79C1364.71 1949.79 1363.04 1951.47 1362.19 1951.47C1347.08 1962.39 1339.53 1972.46 1326.11 1968.26C1327.78 1970.77 1331.99 1976.64 1339.53 1979.18C1335.33 1982.53 1322.75 1981.69 1316.03 1977.51C1316.03 1984.23 1326.11 1988.4 1329.47 1989.23C1322.75 1993.44 1309.33 1989.23 1302.61 1986.73V1988.4C1307.64 1995.95 1322.75 1997.65 1330.3 1997.65C1318.55 2003.5 1307.64 2005.2 1296.73 1998.48C1295.06 2002.66 1306.81 2010.23 1311 2011.91C1311 2014.41 1295.06 2012.74 1287.5 2005.19C1284.98 2009.36 1296.73 2016.94 1299.25 2017.78C1292.53 2023.66 1274.92 2015.25 1278.28 2016.95C1276.61 2016.95 1276.61 2015.25 1276.61 2016.95C1278.28 2021.97 1283.32 2024.5 1288.36 2026.17C1279.12 2032.89 1271.57 2024.5 1267.37 2021.97C1264.86 2021.14 1255.62 2031.22 1254.78 2031.22V2040.44C1253.1 2042.97 1250.58 2049.69 1248.06 2049.69C1246.39 2047.99 1248.9 2042.14 1245.56 2039.61C1234.64 2035.43 1236.32 2047.16 1231.28 2049.69C1225.4 2053.86 1217.85 2042.97 1217.85 2042.14C1217.85 2040.44 1219.53 2036.26 1222.88 2039.61C1227.09 2039.61 1227.09 2036.26 1227.09 2036.26C1227.09 2032.89 1225.4 2029.52 1220.37 2029.52C1219.53 2031.22 1219.53 2035.42 1216.17 2033.72C1211.13 2029.52 1211.13 2019.45 1213.66 2019.45C1217.85 2017.78 1217.85 2023.66 1222.88 2021.96C1225.4 2019.45 1225.4 2012.74 1222.88 2011.91C1219.53 2010.23 1216.17 2014.41 1213.66 2011.91C1215.34 2005.19 1219.54 2000.16 1222.05 2000.16C1227.09 2000.16 1225.4 2007.7 1232.12 2011.91C1241.34 2016.95 1253.1 2016.95 1258.14 2014.41C1281.64 2003.49 1271.57 1986.72 1280.79 1982.52C1296.73 1974.97 1290.03 1967.42 1295.06 1963.22C1296.73 1964.92 1296.73 1972.46 1301.78 1972.46C1302.62 1965.75 1304.3 1959.04 1311.01 1962.39C1313.53 1965.76 1317.73 1969.94 1321.09 1972.46V1959.04C1327.81 1965.76 1337.86 1964.92 1337.86 1962.39C1335.35 1960.71 1330.31 1954.01 1331.99 1952.34C1337.02 1955.68 1347.1 1952.34 1346.25 1949.81C1344.58 1948.98 1343.74 1947.3 1343.74 1946.46C1344.58 1943.93 1351.3 1943.93 1352.97 1943.93C1352.97 1939.75 1347.1 1932.18 1353.8 1925.46C1356.32 1927.99 1358 1930.51 1363.04 1932.18L1364.71 1930.51C1363.04 1926.33 1362.19 1921.29 1364.71 1918.76C1376.46 1918.76 1384.02 1918.76 1393.24 1916.25V1865.06C1391.57 1865.06 1389.05 1864.23 1388.21 1858.34C1386.54 1853.3 1381.49 1849.97 1374.79 1848.27C1377.3 1845.76 1376.46 1841.55 1376.46 1839.89C1379.82 1839.06 1384.02 1839.06 1386.54 1839.89C1390.74 1844.09 1388.21 1850.81 1393.26 1860.86V1832.27C1393.26 1831.44 1391.58 1831.44 1390.74 1829.77C1391.57 1828.07 1393.26 1827.24 1393.26 1825.57V1810.46H1393.28ZM1393.28 1994.24C1390.77 1993.41 1386.56 1991.74 1384.06 1990.89C1379.86 1988.37 1379.01 1981.65 1372.31 1981.65C1370.64 1982.48 1368.12 1982.48 1367.28 1984.18C1358.89 1979.13 1346.29 1986.68 1347.14 1997.6C1353.01 1994.23 1358.04 1994.23 1360.56 2002.62C1358.89 2003.45 1358.89 2005.15 1358.04 2005.15C1346.29 1998.43 1337.9 2016.9 1340.42 2019.42C1344.62 2016.91 1351.32 2015.21 1355.53 2017.74C1358.04 2021.09 1358.04 2023.62 1358.04 2026.12C1350.48 2028.65 1346.29 2031.17 1343.78 2044.59C1343.78 2044.59 1344.62 2044.59 1344.62 2045.42C1351.34 2039.54 1358.04 2039.54 1365.6 2040.37C1368.12 2044.58 1372.32 2045.42 1377.35 2042.9C1383.23 2039.53 1385.75 2032.83 1390.79 2029.45C1391.62 2029.45 1393.31 2028.65 1393.31 2031.15C1394.98 2035.36 1390.79 2039.53 1386.59 2042.07C1386.59 2042.9 1389.11 2044.58 1393.31 2044.58V2024.43C1386.59 2024.43 1381.56 2028.64 1377.37 2035.36C1374.85 2036.19 1372.34 2037.86 1369.81 2037.86C1365.62 2036.19 1360.57 2026.11 1367.29 2023.59C1368.13 2021.89 1369.81 2024.42 1372.32 2023.59C1373.38 2023.12 1374.23 2022.28 1374.72 2021.24C1375.22 2020.19 1375.32 2019.01 1375.02 2017.89C1374.71 2016.78 1374.02 2015.81 1373.07 2015.16C1372.11 2014.51 1370.96 2014.22 1369.81 2014.34C1367.29 2014.34 1364.77 2021.06 1362.26 2016.87C1360.57 2012.67 1362.26 2002.58 1368.13 2003.42C1369.81 2005.12 1370.65 2007.63 1372.32 2007.63C1379.04 2007.63 1377.35 2000.91 1376.51 1998.4C1373.15 1997.57 1368.13 2000.08 1367.29 1997.57C1365.62 1993.37 1369.81 1986.65 1373.17 1986.65C1379.04 1986.65 1377.37 1993.37 1383.23 1994.2C1385.75 1995.88 1390.79 1995.88 1393.31 1998.4V1994.24H1393.28ZM1224.6 1846.53C1227.96 1844.03 1231.32 1850.73 1232.16 1845.7C1234.67 1836.48 1225.44 1839.82 1225.44 1836.48C1226.3 1834.04 1227.89 1831.93 1230 1830.43C1232.1 1828.93 1234.61 1828.1 1237.19 1828.07C1241.38 1828.07 1234.67 1836.48 1243.91 1836.48C1253.14 1829.76 1242.24 1828.07 1242.24 1827.23C1242.24 1822.18 1255.67 1823.05 1257.35 1825.56C1258.19 1827.23 1258.19 1828.06 1257.35 1829.76C1255.67 1832.26 1253.16 1836.48 1252.31 1839.81C1252.31 1853.23 1248.11 1871.7 1253.14 1881.78C1255.66 1885.96 1259.86 1885.96 1262.38 1888.5C1266.57 1891 1274.97 1911.14 1274.97 1911.99C1271.61 1916.19 1269.1 1918.71 1266.58 1921.23C1266.58 1922.91 1269.1 1923.74 1271.63 1923.74C1274.14 1923.74 1264.91 1934.66 1259.87 1935.49C1259.87 1935.49 1258.2 1935.49 1259.87 1937.16C1262.39 1941.36 1267.44 1939.69 1272.47 1941.36C1269.95 1947.24 1267.44 1947.24 1264.92 1953.96C1266.59 1956.46 1279.19 1952.28 1281.7 1953.96C1281.7 1965.71 1260.72 1965.71 1258.2 1952.28H1257.36C1245.62 1960.66 1237.22 1958.16 1236.39 1958.16C1248.97 1951.41 1246.45 1948.91 1253.17 1937.99C1250.65 1935.49 1242.26 1944.71 1237.23 1942.19C1239.75 1941.36 1241.42 1937.99 1243.95 1932.97C1246.46 1926.25 1252.34 1923.72 1252.34 1923.72C1248.98 1921.22 1234.71 1932.1 1234.71 1932.1C1238.92 1918.68 1245.63 1917.01 1246.46 1909.46H1245.63C1236.4 1918.68 1229.69 1919.51 1222.96 1919.51C1224.64 1914.49 1245.63 1911.13 1245.63 1899.37C1245.63 1896.86 1242.27 1901.9 1238.92 1902.74C1232.2 1904.41 1227.99 1905.24 1227.16 1904.41C1231.35 1897.69 1234.71 1897.69 1239.75 1892.66V1890.99C1234.3 1892.64 1228.65 1893.48 1222.96 1893.49L1224.64 1892.66C1231.35 1887.62 1239.75 1888.49 1239.75 1880.91C1239.81 1879.6 1239.54 1878.29 1238.95 1877.12C1238.36 1875.94 1237.49 1874.93 1236.4 1874.19C1232.2 1874.19 1224.65 1872.52 1224.65 1869.17C1232.21 1870 1238.93 1866.64 1236.4 1859.93C1233.88 1854.91 1228.01 1855.75 1222.96 1857.42C1217.88 1853.25 1222.92 1846.53 1224.6 1846.53ZM1211.17 1841.5C1211.17 1841.5 1212.85 1844.03 1216.21 1846.54C1217.89 1848.21 1216.21 1850.74 1216.21 1852.42C1212.85 1852.4 1208.66 1843.18 1211.17 1841.5ZM1215.36 1824.73C1219.56 1823.05 1225.43 1824.73 1227.11 1827.23C1227.11 1828.06 1224.6 1832.27 1222.91 1831.43C1219.56 1824.73 1212.85 1825.56 1215.36 1824.73ZM1248.93 1819.68H1248.09C1245.58 1819.68 1243.9 1822.18 1241.37 1819.68C1239.69 1817.18 1238.86 1815.48 1237.18 1813.81C1241.38 1812.96 1245.58 1815.48 1248.93 1819.68ZM1208.66 2024.46V2029.48C1204.47 2028.68 1203.62 2028.68 1198.59 2029.48C1199.42 2024.46 1206.98 2023.63 1208.66 2024.46ZM1213.69 2000.12C1215.36 2000.95 1212.85 2003.46 1211.17 2005.16C1211.17 2006.83 1206.98 2003.46 1201.94 2003.46C1204.45 2000.12 1209.49 2000.12 1213.69 2000.12ZM1216.21 2045.43C1217.89 2044.6 1220.41 2050.48 1219.56 2050.48C1216.21 2054.65 1208.66 2053.82 1206.14 2052.15C1209.49 2050.48 1212.85 2047.95 1216.21 2045.43ZM1296.77 1902.77C1296.77 1908.64 1296.77 1917.03 1290.9 1925.41C1285.85 1932.98 1272.43 1934.66 1267.4 1935.49C1281.66 1926.28 1287.54 1914.52 1296.77 1902.77ZM1304.32 1893.52C1304.79 1892.09 1305.69 1890.85 1306.89 1889.95C1308.09 1889.05 1309.54 1888.55 1311.04 1888.5C1311.04 1892.67 1314.4 1896.88 1313.56 1899.39C1309.35 1905.27 1304.32 1922.89 1304.32 1930.46C1302.65 1938 1288.38 1952.3 1272.43 1949.75C1311.04 1926.28 1293.41 1908.64 1304.32 1893.52ZM1305.17 1869.2C1307.68 1871.7 1309.37 1875.92 1311.88 1878.42C1311.04 1879.25 1311.04 1880.92 1311.04 1881.79C1311.04 1884.3 1307.68 1883.47 1306.85 1884.3C1292.57 1891.01 1296.77 1908.64 1276.63 1918.69C1290.06 1905.28 1287.54 1880.94 1305.17 1869.2ZM1304.32 1844.03C1302.65 1849.9 1302.65 1849.9 1300.13 1853.25C1290.06 1857.45 1292.57 1867.51 1279.15 1870.04C1278.32 1870.04 1276.63 1871.72 1276.63 1870.04C1278.32 1855.78 1292.57 1846.53 1304.32 1844.03ZM1300.13 1858.28C1301.81 1860.78 1302.65 1864.15 1304.32 1866.66C1292.57 1874.21 1290.9 1885.96 1279.15 1883.45C1279.15 1883.45 1276.63 1883.45 1278.32 1881.78C1293.41 1869.2 1290.9 1862.49 1300.13 1858.28ZM1301.81 1834.78C1302.65 1834.78 1304.32 1837.31 1305.17 1837.31C1306.85 1838.98 1305.17 1839.81 1305.17 1839.81C1301.81 1844.01 1295.1 1843.18 1285.02 1845.69C1285.02 1846.52 1283.35 1846.52 1283.35 1845.69C1287.54 1839.82 1297.62 1836.48 1301.81 1834.78ZM1285.87 1831.43C1290.07 1828.06 1295.1 1827.23 1300.15 1825.56V1831.43C1295.1 1831.43 1290.91 1832.26 1285.04 1832.26C1281.66 1832.27 1285.87 1831.43 1285.87 1831.43ZM1304.32 1817.18C1301.81 1818.01 1301.81 1820.52 1300.13 1822.2C1296.77 1822.2 1290.9 1820.52 1288.38 1818.02C1297.62 1810.46 1305.17 1815.48 1304.32 1817.18ZM1316.07 1815.48C1314.4 1817.18 1313.56 1812.98 1306.85 1815.48C1306.85 1815.48 1304.34 1815.48 1302.65 1812.98C1301.81 1810.47 1300.13 1811.3 1296.77 1807.1C1305.17 1807.09 1311.88 1807.09 1316.07 1815.48ZM1304.32 1938C1304.32 1942.21 1305.15 1947.25 1306.84 1952.3C1304.32 1953.97 1302.64 1953.97 1300.12 1959.02C1299.28 1960.69 1295.07 1948.94 1297.6 1943.89C1300.13 1942.21 1301.81 1939.7 1304.32 1938ZM1307.68 1819.68C1311.88 1818.01 1316.07 1818.01 1318.59 1823.05C1322.79 1823.05 1329.5 1824.73 1332.86 1825.56C1335.37 1827.23 1337.04 1829.76 1337.04 1832.27C1335.37 1836.48 1335.37 1837.32 1334.53 1839.82C1330.33 1838.99 1318.59 1827.23 1318.59 1827.23C1317.75 1827.23 1317.75 1832.27 1309.35 1832.27C1305.17 1831.43 1304.32 1823.05 1307.68 1819.68ZM1311.04 1841.5C1311.88 1838.99 1311.04 1836.48 1313.56 1836.48C1314.39 1834.78 1316.07 1833.95 1317.75 1832.27C1318.59 1832.27 1320.26 1834.78 1321.1 1836.48C1320.26 1839.82 1317.75 1843.2 1317.75 1846.53C1318.59 1846.53 1318.59 1848.2 1320.26 1848.2C1322.78 1846.53 1326.14 1844.03 1326.14 1841.48H1327.81C1329.48 1841.48 1329.48 1841.48 1330.33 1843.18C1330.33 1844.01 1329.5 1845.69 1327.81 1848.2C1326.14 1850.73 1322.78 1852.4 1321.09 1853.25C1320.25 1854.95 1317.73 1853.25 1318.58 1855.78C1318.58 1857.45 1320.25 1859.95 1321.09 1860.8C1322.76 1862.49 1323.61 1859.97 1326.12 1860.8C1325.28 1862.49 1325.28 1864.17 1323.61 1865C1322.78 1865 1320.25 1865 1318.58 1864.17C1317.73 1864.17 1316.06 1862.49 1316.06 1860.8C1316.06 1858.29 1316.06 1857.45 1314.39 1855.78C1313.56 1855.78 1311.87 1854.95 1311.03 1855.78C1311.03 1855.78 1309.35 1857.45 1309.35 1858.28C1309.35 1859.95 1311.03 1859.95 1311.87 1860.78C1314.39 1862.48 1314.39 1864.15 1314.39 1864.98C1316.06 1866.66 1320.26 1867.49 1317.75 1869.19C1317.75 1870.02 1316.07 1871.69 1316.07 1872.53C1314.4 1872.53 1314.4 1871.7 1313.56 1870.03C1311.04 1866.66 1307.68 1862.48 1305.17 1857.44C1306.85 1852.4 1309.37 1846.53 1311.04 1841.5ZM1307.68 1926.28C1307.68 1921.23 1311.04 1906.98 1316.07 1900.26V1901.94C1320.27 1901.94 1320.27 1900.26 1323.63 1897.73C1323.63 1921.23 1311.04 1917.03 1317.76 1963.19C1307.68 1955.63 1306.85 1937.17 1307.68 1926.28ZM1314.4 1802.05C1323.63 1806.26 1330.34 1813.81 1329.51 1819.68H1321.12C1318.6 1813.81 1314.4 1808.76 1314.4 1802.05ZM1321.12 1870.04C1321.12 1869.21 1322.79 1870.04 1322.79 1870.04C1321.12 1875.92 1320.27 1880.94 1320.27 1884.31C1320.27 1885.98 1321.12 1885.98 1321.12 1885.98C1323.63 1881.81 1327.84 1867.51 1329.51 1871.72C1332.87 1880.94 1321.12 1895.22 1318.6 1893.53C1317.76 1893.52 1314.4 1878.42 1321.12 1870.04ZM1326.15 1895.22C1327.82 1893.52 1330.34 1890.17 1332.03 1888.5C1339.59 1906.97 1321.12 1932.12 1337.06 1948.91C1329.51 1949.74 1326.15 1939.69 1325.31 1942.19C1325.31 1947.24 1327.82 1952.27 1329.51 1958.15C1320.27 1956.45 1318.6 1943.85 1320.27 1929.6C1321.12 1916.19 1327.82 1908.64 1326.15 1895.22ZM1332.87 1844.03H1334.54C1335.37 1845.7 1330.34 1850.74 1334.54 1857.45C1335.37 1859.95 1337.06 1859.95 1334.54 1862.49C1334.54 1862.49 1332.87 1864.17 1332.87 1862.49L1330.35 1857.45C1327.84 1855.78 1325.32 1858.28 1321.13 1858.28V1855.78C1327.82 1854.95 1330.34 1849.9 1332.87 1844.03ZM1326.15 1799.54C1334.54 1803.74 1339.57 1807.09 1342.09 1812.96C1340.42 1817.16 1339.57 1819.68 1339.57 1824.71C1337.89 1824.71 1337.89 1822.18 1332.86 1820.51C1330.34 1812.96 1329.51 1807.09 1326.15 1799.54ZM1329.51 1862.49C1329.51 1859.96 1330.34 1865 1332.87 1865C1335.38 1866.67 1335.38 1864.17 1339.59 1862.49C1339.59 1862.49 1339.59 1860.8 1337.9 1859.96C1335.38 1855.79 1335.38 1850.74 1337.9 1845.7H1340.42C1343.78 1848.2 1339.59 1853.25 1342.09 1854.95C1343.76 1855.78 1344.61 1857.45 1346.29 1857.45C1350.48 1855.78 1347.12 1850.73 1348.81 1849.9C1351.32 1846.53 1353.84 1844.03 1356.37 1844.03C1356.37 1845.7 1356.37 1846.53 1358.04 1848.2C1358.04 1849.9 1362.24 1850.73 1358.89 1852.4C1356.37 1855.78 1355.53 1860.78 1353.84 1865C1353.01 1870.04 1342.09 1874.22 1332.87 1879.26C1332.03 1878.43 1332.87 1875.92 1332.03 1871.72C1334.54 1870.04 1337.06 1871.72 1339.59 1870.04C1340.42 1869.21 1344.62 1870.04 1346.31 1867.51C1346.31 1866.68 1344.63 1864.17 1342.1 1865.01C1342.1 1865.01 1340.43 1865.01 1340.43 1866.68C1339.6 1869.21 1330.37 1867.51 1327.85 1866.68C1327.82 1865 1329.51 1864.17 1329.51 1862.49ZM1334.54 1883.47C1337.06 1883.47 1339.57 1881.79 1342.09 1880.94C1346.29 1885.98 1346.29 1901.94 1346.29 1906.98C1344.62 1918.71 1343.78 1923.75 1346.29 1938.02C1339.57 1933 1337.9 1929.64 1335.38 1922.92C1334.55 1911.17 1339.59 1899.42 1334.55 1888.52C1334.54 1887.64 1332.03 1884.3 1334.54 1883.47ZM1347.12 1831.43C1353 1829.76 1358.03 1833.93 1358.87 1838.98C1358.87 1838.98 1360.55 1838.98 1362.23 1837.31C1364.75 1837.31 1367.26 1837.31 1369.78 1839.81C1370.62 1841.48 1370.62 1843.18 1369.78 1844.01C1368.11 1846.52 1363.06 1850.73 1358.87 1846.52C1358.87 1844.01 1360.55 1841.47 1358.03 1841.47C1353.83 1839.8 1343.76 1844 1337.89 1841.47C1337.89 1837.31 1342.09 1831.43 1347.12 1831.43ZM1360.55 1804.58C1363.06 1804.58 1365.59 1804.58 1368.11 1806.26C1367.26 1806.26 1367.26 1807.09 1365.59 1807.09C1358.87 1812.96 1353.84 1819.68 1348.81 1825.56L1342.09 1824.73C1343.76 1818.01 1347.12 1806.26 1360.55 1804.58ZM1356.36 2007.66C1358.03 2009.34 1356.36 2007.66 1356.36 2014.38H1353.84C1350.48 2012.71 1347.12 2012.71 1344.62 2014.38C1346.29 2009.34 1353 2007.66 1356.36 2007.66ZM1353 1875.92C1356.36 1881.79 1356.36 1890.18 1358.03 1897.73C1360.55 1906.98 1358.03 1914.53 1356.36 1922.91C1347.12 1914.53 1351.32 1901.94 1348.8 1891.01C1347.12 1887.64 1346.28 1883.47 1344.61 1879.26C1343.76 1879.26 1350.48 1876.75 1353 1875.92ZM1358.89 2031.18C1358.89 2032.85 1358.89 2033.68 1360.56 2036.22H1358.89C1353.01 2036.22 1351.32 2037.9 1347.14 2039.57C1347.12 2035.38 1355.51 2028.66 1358.89 2031.18ZM1364.75 1988.37C1363.08 1990.89 1362.23 1993.41 1362.23 1994.24C1362.23 1995.91 1360.55 1994.24 1360.55 1994.24C1358.03 1993.41 1355.51 1991.74 1353 1991.74C1355.51 1988.37 1362.23 1985.02 1364.75 1988.37ZM1370.62 1812.96C1377.34 1811.29 1384.06 1813.79 1389.09 1812.96H1390.77C1388.25 1817.16 1383.2 1815.47 1377.33 1817.16C1367.26 1817.99 1364.74 1820.51 1358.03 1828.06C1355.51 1828.06 1355.51 1827.23 1353.83 1827.23C1358.04 1817.18 1362.23 1815.48 1370.62 1812.96ZM1356.36 1871.72C1358.03 1870.04 1358.87 1866.67 1358.87 1866.67C1364.75 1872.55 1368.11 1881.79 1369.78 1892.69C1370.62 1904.44 1376.5 1909.48 1374.83 1909.48C1370.62 1908.65 1367.26 1905.28 1364.75 1901.94C1362.23 1896.89 1362.23 1888.51 1355.51 1872.55C1355.51 1871.72 1355.51 1872.55 1356.36 1871.72ZM1358.89 1829.76C1372.31 1817.16 1379.03 1819.68 1390.78 1817.16L1391.61 1817.99C1390.78 1822.17 1388.25 1827.22 1384.06 1827.22C1377.34 1828.05 1372.31 1827.22 1365.59 1832.26C1364.75 1832.26 1364.75 1831.43 1362.23 1832.26C1362.23 1832.27 1358.04 1829.76 1358.89 1829.76ZM1363.08 1857.45C1364.75 1855.78 1365.59 1857.45 1367.28 1858.28C1379.87 1869.2 1372.31 1891 1386.58 1904.44C1388.25 1905.27 1379.01 1902.77 1376.5 1900.26C1369.78 1888.51 1372.31 1878.42 1362.23 1864.17C1360.55 1862.49 1363.08 1857.45 1363.08 1857.45ZM1373.14 1850.73C1377.34 1852.4 1383.2 1854.93 1384.06 1859.95C1389.09 1874.22 1386.58 1881.79 1391.61 1901.92C1383.22 1901.92 1381.54 1879.25 1377.34 1869.2C1374.83 1864.15 1370.62 1858.28 1365.59 1854.93C1372.31 1852.4 1373.14 1850.73 1373.14 1850.73ZM1391.61 1834.78C1391.61 1836.48 1391.61 1836.48 1390.78 1836.48C1384.06 1838.98 1381.54 1834.78 1376.5 1837.31C1374.83 1838.98 1374.83 1836.48 1372.31 1836.48C1370.64 1833.95 1369.79 1833.95 1369.79 1833.95C1377.34 1829.76 1383.2 1828.06 1391.61 1834.78Z" fill="#0C0E0F"/>
<path fill-rule="evenodd" clip-rule="evenodd" d="M1393.28 1810.46C1395.8 1817.18 1395.8 1820.51 1393.28 1825.56V1810.46ZM1393.28 1832.27C1395.8 1836.48 1398.31 1839.82 1400 1838.99C1409.23 1827.24 1428.53 1823.05 1426.03 1815.49C1423.5 1807.11 1416.78 1807.11 1410.08 1807.11C1411.75 1802.07 1419.33 1802.07 1428.55 1802.07C1428.55 1798.72 1427.72 1795.35 1428.55 1792.85C1442.81 1795.35 1448.69 1811.32 1457.07 1812.99C1465.47 1813.82 1474.69 1808.79 1481.41 1803.77H1482.24C1481.41 1819.71 1498.19 1807.11 1503.24 1810.49C1504.07 1824.75 1479.74 1828.09 1477.22 1834.8C1474.69 1841.52 1479.73 1843.21 1481.4 1845.72C1479.73 1846.55 1470.5 1846.55 1471.35 1850.77C1475.52 1855.81 1486.44 1853.27 1487.29 1849.94C1491.49 1841.53 1484.78 1839.02 1484.78 1837.35C1486.46 1836.52 1489.83 1839.02 1493.16 1836.52C1493.99 1833.99 1491.49 1832.31 1491.49 1831.47C1496.53 1832.3 1501.54 1836.52 1510.79 1833.97C1514.13 1832.3 1510.79 1829.8 1512.46 1827.26C1517.51 1828.09 1522.54 1833.97 1526.73 1836.5C1530.93 1834.8 1529.26 1829.78 1528.43 1823.08C1533.45 1822.22 1538.48 1837.35 1545.2 1839.02C1547.7 1839.85 1550.24 1836.52 1550.24 1833.97C1551.91 1833.97 1551.91 1834.8 1551.91 1836.5C1561.16 1869.23 1571.21 1837.33 1576.26 1843.22C1577.93 1843.22 1576.26 1844.05 1576.26 1844.05C1573.76 1846.55 1572.89 1852.43 1573.76 1855.8C1579.61 1875.94 1558.63 1880.95 1559.46 1880.95C1561.16 1925.44 1514.98 1926.29 1491.5 1921.25C1498.22 1935.51 1514.99 1937.19 1516.68 1949.77C1517.51 1953.97 1519.18 1965.72 1522.55 1969.91C1529.27 1974.11 1540.99 1967.41 1546.87 1963.19C1556.95 1964.89 1556.95 1970.74 1558.62 1972.44C1568.7 1974.11 1576.25 1967.39 1585.47 1964.89C1588 1967.39 1580.45 1976.62 1584.64 1974.94C1585.47 1974.94 1585.47 1974.11 1587.17 1974.94C1588 1979.99 1584.64 1985.02 1585.47 1988.37C1587.17 1989.2 1588 1989.2 1591.34 1990.89C1589.67 1993.4 1587.17 1991.72 1584.62 1997.61C1585.45 1998.44 1591.34 1998.44 1593.87 1998.44C1591.34 2003.46 1582.12 2009.34 1580.45 2011.87C1582.12 2012.7 1585.47 2012.7 1587.17 2012.7C1587.17 2016.9 1579.59 2017.74 1577.92 2021.08C1579.59 2021.91 1580.45 2021.91 1582.12 2023.6C1579.59 2026.95 1568.7 2031.15 1571.2 2032.83C1572.87 2033.66 1575.4 2035.36 1577.92 2036.2C1569.54 2042.92 1564.5 2044.58 1555.27 2044.58C1555.27 2047.92 1555.27 2050.45 1551.9 2053.8C1550.23 2056.33 1545.18 2058.84 1540.98 2058.84C1543.51 2050.46 1540.98 2042.9 1534.26 2042.9C1534.26 2044.58 1533.43 2044.58 1533.43 2045.41C1535.96 2053.79 1531.76 2062.2 1520.01 2061.35C1514.96 2068.09 1499.04 2068.09 1491.49 2058.84V2056.34C1498.21 2056.34 1501.54 2056.34 1507.43 2053.81C1507.43 2050.46 1507.43 2049.63 1505.76 2047.94C1499.04 2047.11 1491.49 2050.46 1484.78 2053.81C1483.95 2044.59 1489.83 2032.84 1498.21 2032.84C1500.71 2024.46 1501.55 2026.96 1501.55 2024.46C1498.21 2021.93 1491.5 2021.09 1486.46 2021.09C1484.78 2021.09 1483.95 2021.92 1482.25 2021.09C1488.97 2007.66 1499.05 2006.82 1507.43 2010.19C1509.96 2007.66 1514.15 2005.15 1516.68 2006.82C1521.72 2006.82 1522.55 2015.2 1525.9 2017.74C1530.94 2019.42 1536.82 2011.87 1536.82 2006.82C1536.82 1995.9 1519.19 1994.23 1509.97 1995.9C1501.57 1997.6 1494.02 1995.9 1486.47 1990.88C1481.42 1986.68 1475.55 1982.48 1470.53 1977.46C1468.83 1976.6 1468.83 1977.46 1468.83 1979.13C1468 1982.48 1465.48 1988.35 1468.83 1993.4C1473.03 1995.9 1481.42 1998.44 1482.25 2005.15C1481.42 2007.65 1481.42 2011.87 1478.08 2014.37C1474.71 2016.9 1468.83 2019.42 1468.83 2024.45C1468 2031.17 1468.83 2032.83 1474.71 2039.54C1468.83 2042.07 1461.28 2039.54 1457.08 2037.87C1456.25 2037.87 1452.06 2045.42 1451.23 2047.92C1447.03 2049.62 1444.51 2039.54 1442.83 2040.37C1442 2042.07 1437.78 2047.09 1437.78 2049.62C1435.28 2050.45 1432.76 2040.37 1431.06 2039.54C1428.56 2042.07 1426.04 2045.42 1426.04 2049.62C1423.51 2047.92 1421.84 2045.42 1419.32 2042.9C1415.95 2047.08 1410.08 2049.62 1405.05 2047.92C1403.37 2047.09 1407.56 2042.9 1405.88 2042.07C1405.88 2040.37 1405.05 2042.07 1405.05 2042.07C1403.37 2044.58 1398.33 2044.58 1393.29 2044.58V2024.43C1398.33 2023.6 1403.36 2026.11 1409.23 2029.45C1411.74 2032.83 1411.74 2037.86 1410.06 2042.07C1410.06 2042.9 1407.55 2044.58 1409.23 2045.42C1420.99 2042.07 1416.78 2029.47 1419.31 2026.95C1420.99 2026.12 1420.99 2026.95 1420.99 2026.95C1420.99 2032.83 1419.31 2039.54 1423.49 2042.9C1426.02 2035.36 1430.21 2026.95 1435.24 2021.06C1436.07 2021.06 1436.07 2021.06 1436.07 2021.89C1436.07 2021.06 1432.72 2035.34 1437.74 2039.52C1440.27 2033.64 1444.49 2021.89 1451.19 2017.7C1448.66 2023.58 1445.32 2032.8 1449.49 2040.35C1454.54 2032.8 1451.19 2021.88 1461.24 2014.33V2015.16C1457.04 2024.41 1453.69 2035.33 1467.96 2037.83V2036.16C1457.04 2026.08 1468.79 2014.32 1473.01 2012.66C1474.68 2011.83 1474.68 2007.61 1474.68 2006.78C1473.01 2003.41 1470.5 2000.91 1468.8 2000.06C1463.79 1998.39 1460.43 1995.86 1458.75 1990.84C1457.05 1984.12 1460.43 1976.55 1461.26 1970.67C1462.93 1968.17 1454.54 1960.62 1448.66 1953.9C1445.32 1963.13 1433.57 1963.13 1431.04 1953.9C1419.31 1960.62 1420.99 1963.13 1412.59 1970.67C1412.59 1972.37 1409.22 1970.67 1409.22 1969.84C1411.72 1964.83 1414.27 1958.95 1415.94 1953.9C1416.77 1951.38 1412.59 1955.58 1407.55 1958.11C1403.35 1960.61 1397.48 1962.28 1397.48 1963.13C1394.97 1974.05 1397.48 1979.92 1410.06 1982.43C1420.99 1984.12 1431.04 1979.92 1438.61 1984.95C1452.03 1994.18 1442.79 2007.6 1424.32 2010.13C1415.94 2011.8 1398.31 2012.63 1395.8 2000.88C1395.8 2000.05 1394.95 1998.38 1393.28 1998.38V1994.18C1394.95 1995.85 1395.8 1995.85 1395.8 1997.55C1399.99 2003.4 1403.35 2003.4 1411.74 2005.1C1416.78 2005.1 1421.82 2005.1 1426.03 2003.4C1435.25 2000.89 1435.25 1989.13 1428.53 1989.13C1419.31 1988.3 1411.74 1990.83 1403.36 1988.3C1398.33 1986.63 1394.97 1984.95 1391.61 1984.12L1393.28 1955.58C1409.22 1947.2 1420.99 1942.15 1437.76 1932.93C1438.61 1932.93 1441.96 1932.08 1444.5 1932.93C1463.8 1958.95 1473.02 1979.92 1508.26 1984.97C1521.71 1988.31 1536.81 1982.44 1542.68 1997.56C1546.86 2006.78 1538.48 2021.88 1526.73 2021.88C1524.22 2023.58 1521.71 2019.38 1520.01 2016.86C1519.18 2014.33 1519.18 2010.14 1514.96 2009.29C1510.79 2010.14 1508.25 2014.33 1507.42 2017.69C1504.07 2023.57 1512.46 2021.87 1514.13 2024.41C1519.18 2031.13 1509.96 2036.16 1505.76 2031.13C1500.71 2028.62 1500.71 2042.05 1504.08 2042.88C1508.26 2044.55 1510.8 2040.35 1512.46 2039.51C1520.01 2036.16 1524.21 2049.58 1514.13 2047.05C1510.79 2047.88 1512.46 2052.1 1514.13 2054.6C1516.66 2058.8 1525.88 2058.8 1528.43 2053.77C1529.26 2050.43 1526.73 2047.9 1526.73 2045.39C1531.77 2032.8 1551.9 2040.35 1558.62 2042.05C1559.45 2042.05 1566.17 2040.35 1569.54 2037.85C1563.67 2036.17 1554.42 2031.13 1552.74 2028.62C1564.5 2029.43 1568.7 2028.62 1572.89 2026.09C1567.04 2026.09 1561.16 2024.42 1555.29 2021.05C1564.51 2021.05 1571.23 2021.88 1579.61 2015.17C1571.23 2015.17 1558.63 2016.87 1555.29 2010.15C1559.46 2010.15 1566.18 2012.66 1571.23 2011.83C1575.43 2010.15 1584.65 2006.78 1582.15 2003.42C1575.43 2005.12 1573.77 2000.92 1558.65 2003.42C1558.65 2000.08 1577.95 2000.08 1576.27 1997.57C1572.9 1997.57 1562.01 1995.88 1558.65 1994.2V1993.37C1568.72 1993.37 1579.62 1989.17 1582.15 1981.62C1576.27 1984.15 1559.48 1988.34 1556.97 1984.99C1569.57 1984.16 1582.15 1969.87 1579.62 1969.87C1572.9 1974.07 1564.52 1974.92 1556.97 1974.92C1555.3 1974.92 1555.3 1974.92 1554.44 1974.09C1554.44 1972.41 1554.44 1970.71 1552.77 1970.71C1546.9 1965.69 1534.3 1984.16 1519.21 1974.09C1512.49 1967.37 1512.49 1958.99 1508.28 1951.41C1505.1 1945.37 1500.83 1939.97 1495.69 1935.47C1487.31 1930.43 1481.42 1922.88 1475.55 1914.5C1474.72 1909.46 1463.82 1897.71 1456.25 1899.38C1451.23 1900.24 1447.03 1900.24 1441.98 1901.91C1421.84 1906.95 1410.09 1913.66 1393.31 1916.18V1864.98C1394.98 1864.98 1394.98 1864.15 1394.98 1864.15C1394.98 1862.48 1393.31 1862.48 1393.31 1860.78V1832.27H1393.28ZM1393.28 1946.41C1393.28 1946.41 1394.95 1946.41 1394.95 1944.71C1394.97 1944.72 1393.28 1944.72 1393.28 1946.41ZM1400 2029.48C1400.84 2029.48 1403.36 2031.18 1405.03 2032.85C1409.23 2035.38 1397.48 2042.93 1393.28 2040.4C1395.81 2037.88 1398.33 2033.68 1400 2029.48ZM1407.55 1837.31C1415.94 1829.76 1430.21 1825.56 1430.21 1818.01C1431.04 1808.76 1416.78 1806.26 1418.46 1806.26C1421.83 1803.75 1432.75 1807.09 1435.25 1812.98C1435.25 1813.81 1436.08 1804.6 1433.58 1799.55C1447 1806.27 1447 1817.18 1442.8 1824.73C1442.8 1825.56 1444.5 1827.23 1444.5 1825.56C1449.52 1815.48 1462.94 1817.18 1471.35 1812.96C1473.02 1812.96 1473.02 1813.79 1473.02 1813.79C1471.35 1815.47 1470.52 1817.99 1468.82 1819.67C1468.82 1820.5 1470.52 1820.5 1470.52 1820.5C1487.29 1820.5 1498.21 1813.78 1498.21 1813.78C1498.21 1815.45 1495.68 1822.16 1470.52 1828.05C1465.47 1836.45 1475.54 1843.17 1473.02 1844C1466.3 1844 1462.94 1841.47 1463.8 1834.75C1462.94 1833.92 1462.94 1833.92 1461.27 1833.92C1454.55 1843.17 1467.99 1855.76 1475.54 1858.27C1475.54 1859.94 1474.71 1859.94 1471.36 1859.94C1445.34 1854.92 1451.22 1832.25 1427.72 1834.76C1421 1836.46 1409.25 1844.01 1407.57 1853.23C1405.89 1860.78 1410.09 1870.03 1418.47 1871.7C1435.26 1876.75 1449.53 1869.2 1466.31 1862.48C1473.03 1864.15 1481.41 1864.15 1484.78 1859.95C1486.46 1859.95 1479.74 1857.45 1478.07 1855.78H1479.74C1488.96 1854.95 1494 1850.73 1493.16 1839.82C1498.21 1839.82 1504.08 1849.9 1507.43 1850.74C1509.96 1852.42 1503.25 1839.82 1501.55 1837.32C1509.96 1838.99 1516.68 1841.5 1520.02 1850.74C1522.55 1850.74 1516.68 1833.95 1519.19 1834.79C1531.79 1841.51 1530.94 1853.26 1531.79 1850.74C1535.99 1846.54 1533.46 1841.5 1535.99 1837.32C1542.71 1841.5 1549.41 1846.54 1546.88 1854.95V1855.78C1549.41 1854.95 1551.93 1849.9 1552.76 1846.53C1556.96 1850.73 1559.48 1857.45 1556.96 1864.15L1555.29 1864.98C1556.96 1866.66 1558.63 1866.66 1559.46 1864.98C1566.18 1862.48 1563.67 1854.93 1568.71 1852.39C1572.89 1864.98 1569.54 1874.21 1554.42 1878.41C1554.42 1884.28 1552.75 1891 1551.91 1897.71C1547.71 1906.95 1540.16 1911.97 1531.77 1916.18C1519.18 1919.52 1491.5 1919.52 1481.41 1911.97C1479.74 1911.14 1478.07 1908.63 1477.23 1906.95C1494 1911.97 1538.49 1914.5 1546.87 1891C1552.75 1872.53 1535.98 1862.48 1524.22 1860.78C1496.53 1858.28 1473.03 1870.03 1441.97 1879.25C1424.34 1884.3 1398.33 1883.45 1397.5 1860.78C1397.48 1852.4 1400 1843.18 1407.55 1837.31ZM1498.19 2036.21C1497.6 2037.27 1497.36 2038.5 1497.51 2039.71C1497.66 2040.91 1498.19 2042.04 1499.02 2042.93C1500.7 2045.43 1493.15 2044.6 1488.95 2047.11C1488.95 2044.6 1493.16 2036.21 1498.19 2036.21ZM1504.07 2012.71C1503.14 2014.91 1502.29 2017.16 1501.54 2019.43C1498.19 2016.93 1495.67 2016.93 1488.95 2017.76C1489.82 2014.38 1499.04 2007.66 1504.07 2012.71ZM1508.26 2056.35C1509.96 2057.18 1510.79 2058.86 1512.46 2059.7C1510.79 2062.23 1499.04 2063.9 1498.19 2058.87C1501.54 2058.86 1505.74 2058.86 1508.26 2056.35ZM1540.98 2042.09C1540.15 2040.39 1547.7 2042.09 1549.39 2042.92C1550.22 2044.59 1551.89 2049.63 1546.86 2052.14C1546.86 2047.11 1546.86 2045.43 1540.98 2042.09ZM1395.81 1874.22C1395.81 1872.55 1395.81 1872.55 1397.48 1872.55C1403.36 1887.64 1419.31 1888.5 1433.58 1885.97C1460.43 1881.79 1493.99 1866.67 1516.66 1866.67C1524.21 1866.67 1542.68 1870.04 1542.68 1881.79C1542.68 1890.17 1540.15 1895.22 1534.28 1899.39C1526.73 1904.44 1507.43 1906.97 1499.04 1906.97C1493.99 1906.97 1474.69 1905.27 1468.82 1897.72C1465.47 1895.22 1460.44 1893.52 1454.55 1893.52C1436.08 1893.52 1415.94 1904.44 1400 1904.44C1395.81 1904.44 1394.97 1880.94 1395.81 1874.22ZM1436.08 1841.5C1442.8 1846.54 1448.68 1855.79 1458.75 1860.8C1458.75 1862.49 1438.61 1869.2 1431.04 1869.2C1416.77 1869.2 1412.59 1862.48 1412.59 1855.78C1412.61 1848.2 1426.03 1836.48 1436.08 1841.5Z" fill="#0C0E0F"/>
<path fill-rule="evenodd" clip-rule="evenodd" d="M1159.98 1883.47L1195.23 1869.2L1180.97 1905.27L1217.89 1919.54L1180.97 1934.66L1195.23 1970.73L1159.98 1956.46L1145.71 1991.72L1129.77 1956.46L1093.69 1970.73L1108.8 1934.66L1076.08 1921.23V1918.7L1108.8 1905.28L1094.54 1869.21L1129.77 1883.48L1145.71 1848.21L1159.98 1883.47ZM1157.45 1888.51L1190.19 1875.92L1176.75 1908.64L1209.47 1919.54L1176.75 1932.98L1190.19 1964.88L1157.45 1952.28L1145.7 1982.48L1133.12 1951.41L1100.39 1964.86L1112.98 1932.97L1082.76 1919.52L1112.98 1906.95L1100.39 1875.89L1133.12 1888.49L1145.7 1855.76L1157.45 1888.51Z" fill="#FAE935"/>
</g>
<defs>
<clipPath id="clip0_6_2">
<rect width="2800" height="2800" fill="white"/>
</clipPath>
</defs>
</svg>
