<svg width="160" height="160" viewBox="0 0 160 160" fill="none" xmlns="http://www.w3.org/2000/svg">
<path d="M49.975 30.4114C49.275 30.4114 47.675 30.5114 46.675 30.5114C46.075 30.5114 45.575 30.4114 44.775 30.1114C44.475 30.0114 44.275 30.2114 44.175 30.5114L44.075 32.7114C44.075 33.2114 44.475 33.6114 44.975 33.7114C46.675 34.1114 48.775 33.9114 51.475 31.0114C52.075 30.5114 50.675 30.4114 49.975 30.4114Z" fill="#EE3124"/>
<path d="M157.475 44.0114C157.575 43.9114 157.575 43.8114 157.475 43.8114C152.775 38.9114 131.975 41.3114 123.975 42.3114C113.975 43.4114 105.775 44.5114 103.275 44.7114C100.575 44.8114 95.075 45.2114 91.875 43.7114C88.275 41.9114 87.175 40.6114 86.975 38.8114C86.175 33.5114 90.775 33.4114 92.175 33.4114C93.575 33.4114 95.675 33.4114 95.575 35.4114C95.475 36.8114 94.275 37.4114 93.075 38.0114C92.975 38.0114 92.975 38.2114 93.075 38.2114C93.775 38.8114 96.375 40.8114 99.275 40.6114C102.675 40.4114 104.975 39.7114 106.475 34.1114C106.475 34.0114 106.575 34.0114 106.675 34.0114C107.675 34.4114 114.275 36.9114 118.175 37.7114C121.275 38.4114 125.975 38.5114 129.175 36.6114C132.375 34.7114 137.075 31.9114 142.275 32.2114C146.875 32.4114 152.175 32.5114 155.275 34.3114C155.375 34.4114 155.475 34.3114 155.475 34.1114C154.875 32.0114 150.675 20.4114 136.675 23.6114C133.175 24.6114 132.675 25.4114 129.875 25.9114C126.575 26.5114 121.575 26.8114 114.775 25.2114C114.675 25.2114 114.575 25.0114 114.775 24.9114C116.575 23.9114 125.875 19.1114 136.175 20.9114C136.275 20.9114 136.375 20.8114 136.275 20.7114C135.275 19.4114 130.675 13.7114 122.975 14.0114C114.075 14.3114 112.075 16.3114 106.575 19.2114C101.475 21.9114 99.275 23.7114 90.575 23.2114C85.175 22.9114 79.375 27.2114 78.175 30.6114C73.075 45.4114 84.075 51.3114 93.775 52.9114C102.775 54.3114 133.975 47.9114 141.375 51.3114C144.775 52.8114 146.775 56.0114 146.575 58.7114C146.475 60.0114 145.075 62.2114 140.775 63.1114C136.375 64.1114 126.975 64.5114 118.775 62.5114C118.575 62.4114 111.175 58.2114 105.375 57.9114C101.075 57.6114 90.075 60.0114 86.675 60.1114C84.275 60.1114 79.575 60.4114 77.075 60.6114C77.175 49.4114 71.075 40.2114 70.775 39.7114C70.375 39.1114 69.575 38.9114 68.975 39.3114C68.975 39.3114 68.175 39.7114 66.675 40.4114C68.275 37.2114 67.875 33.1114 66.375 31.5114C66.275 31.4114 66.275 31.3114 66.375 31.2114C66.775 30.8114 67.675 29.2114 67.775 27.7114C67.875 25.1114 67.375 21.8114 61.175 18.4114C60.775 18.2114 60.275 18.4114 60.075 18.8114C59.575 20.1114 58.475 22.4114 57.375 22.5114C55.075 22.7114 48.075 24.2114 46.275 25.2114C44.475 26.1114 42.375 27.6114 41.275 29.3114C40.175 31.0114 38.875 31.8114 37.075 32.2114C35.275 32.6114 34.575 32.2114 33.975 32.8114C33.475 33.4114 33.075 33.9114 33.275 35.0114C33.375 35.8114 34.875 38.9114 35.675 40.4114C36.275 41.5114 37.175 42.7114 38.175 43.3114H35.775C35.075 43.3114 33.675 43.2114 33.675 43.2114C33.375 43.2114 33.075 43.3114 32.975 43.6114C32.875 43.9114 32.875 44.2114 33.075 44.4114C33.775 45.2114 34.575 46.1114 37.375 46.1114C37.475 46.1114 37.575 46.1114 37.675 46.1114H39.875C39.575 46.5114 39.175 46.9114 38.975 47.2114C38.775 47.5114 37.175 49.1114 38.275 51.6114C39.175 53.6114 40.475 54.3114 40.475 54.3114C42.075 53.2114 45.575 51.6114 46.975 52.7114C46.675 53.0114 46.475 53.3114 46.175 53.6114C43.275 56.8114 39.375 60.8114 37.275 65.8114C34.575 64.8114 28.075 62.3114 25.075 59.3114C24.175 58.4114 23.275 55.9114 23.875 54.0114C24.375 52.4114 24.775 50.7114 23.575 48.1114C22.475 45.7114 19.275 43.3114 19.275 43.3114C19.675 40.4114 20.275 36.5114 20.475 35.4114C23.175 35.7114 25.775 35.0114 26.675 33.7114C27.575 32.4114 27.775 29.8114 28.275 29.2114C28.675 28.6114 29.675 28.8114 30.175 28.8114C31.375 28.7114 32.875 28.7114 34.375 27.3114C35.975 25.8114 37.175 23.7114 38.575 23.5114C40.575 23.2114 41.675 22.6114 42.675 21.8114C43.875 20.8114 46.375 17.7114 50.975 17.8114C52.275 17.8114 52.975 16.5114 50.575 16.0114C47.375 15.3114 43.775 15.9114 41.875 16.7114C39.275 17.7114 38.175 16.8114 37.075 16.5114C35.375 16.0114 33.675 16.1114 31.175 17.1114C29.075 17.9114 25.375 18.4114 23.175 17.7114C20.075 16.7114 17.475 16.2114 13.475 17.2114C9.97499 18.0114 7.57499 20.0114 6.37499 22.9114C5.27499 25.6114 6.17499 27.7114 6.37499 28.2114C6.57499 28.7114 7.07501 29.5114 7.27501 29.7114C7.17501 32.0114 6.87499 39.6114 6.87499 40.5114C6.37499 41.2114 6.17501 42.1114 6.17501 42.5114C6.07501 42.9114 6.075 43.2114 6.075 43.6114C5.975 43.6114 5.77501 43.6114 5.67501 43.6114C4.87501 43.7114 3.97499 44.0114 3.37499 44.7114L3.17501 45.0114L2.97499 45.3114C2.87499 45.5114 2.675 45.7114 2.575 45.9114L2.27501 46.5114C2.17501 46.7114 2.175 47.0114 2.075 47.3114C1.975 47.8114 1.975 48.4114 2.075 48.9114C2.175 49.4114 2.37501 49.9114 2.67501 50.3114C3.07501 51.0114 3.575 51.4114 4.075 51.8114C3.875 52.0114 3.67499 52.3114 3.47499 52.5114C3.07499 53.1114 2.87501 53.7114 2.77501 54.6114C2.67501 55.5114 2.97499 56.3114 3.37499 56.9114C3.77499 57.5114 4.17501 58.0114 4.67501 58.3114C5.07501 58.6114 5.675 59.0114 6.075 59.3114C4.975 90.6114 4.875 91.8114 8.075 92.8114C8.175 92.8114 8.37499 92.8114 8.47499 92.8114C12.275 92.8114 13.275 84.4114 15.475 69.8114C15.775 67.7114 15.975 65.8114 16.275 64.2114C18.975 69.2114 25.075 79.6114 33.975 87.7114C34.475 88.1114 35.175 87.9114 35.375 87.2114C36.375 83.1114 37.075 81.7114 37.475 81.0114C38.075 82.3114 39.075 84.0114 39.875 85.2114C41.075 86.9114 42.575 88.6114 44.375 90.2114C41.675 92.8114 34.975 98.7114 28.175 100.811C28.075 100.811 28.075 100.811 27.975 100.711C27.775 100.111 26.575 97.5114 25.075 96.1114C23.375 94.6114 21.975 92.9114 15.675 94.3114C15.675 94.3114 13.975 94.7114 12.075 95.5114C11.275 95.8114 11.475 97.0114 12.275 97.0114C13.075 97.0114 13.775 97.1114 14.075 97.2114C14.175 97.2114 14.175 97.3114 14.175 97.3114C14.075 97.7114 13.975 98.9114 14.675 100.011C14.675 100.111 14.675 100.111 14.675 100.211C13.975 100.711 9.57499 104.211 10.375 111.411C10.475 111.911 11.075 112.011 11.275 111.511C11.575 110.511 11.975 109.411 11.975 109.511C12.375 110.111 13.975 112.811 16.475 113.211C16.575 113.211 16.575 113.311 16.575 113.311C16.475 114.111 16.075 118.211 19.175 122.111C19.575 122.611 20.275 122.311 20.275 121.611C20.275 121.011 20.175 120.511 20.275 120.011C20.275 119.911 20.375 119.811 20.475 119.911C20.975 120.311 22.175 120.711 23.775 119.711C25.275 118.811 27.075 116.911 28.475 114.511C28.475 114.411 28.675 114.411 28.675 114.511C29.875 116.011 31.675 116.111 33.775 116.111C37.275 116.111 40.175 114.211 40.175 110.811C40.175 110.711 40.175 110.611 40.175 110.611C48.075 111.411 52.875 109.511 58.875 105.711C64.475 102.211 67.275 99.7114 66.875 96.5114C66.675 95.1114 66.075 93.5114 65.075 92.6114C74.675 92.4114 79.675 85.9114 81.475 83.0114C81.575 82.9114 81.775 83.0114 81.675 83.1114C81.075 85.8114 80.975 90.9114 82.475 93.6114C84.675 97.6114 89.875 103.711 90.675 106.211C91.475 108.711 91.375 115.111 88.575 118.611C85.775 122.111 85.075 122.711 82.975 123.911H82.875C82.375 123.411 78.575 120.211 74.875 119.611C71.075 119.011 59.175 116.311 58.575 129.311C58.575 129.911 59.275 130.211 59.675 129.811C60.475 128.811 61.575 127.611 62.275 127.311H62.375C62.675 127.411 64.075 128.211 64.675 128.311C64.775 128.311 64.775 128.411 64.775 128.511C62.775 131.111 60.875 135.311 64.675 139.911C64.975 140.311 65.675 140.011 65.575 139.511C65.475 138.811 65.475 137.911 65.575 137.111C65.575 137.011 65.775 136.911 65.775 137.011C67.175 139.011 70.275 139.711 73.275 138.411C73.375 138.411 73.475 138.411 73.475 138.511C73.575 139.311 74.375 142.711 79.475 146.511C79.975 146.911 80.675 146.311 80.475 145.711C80.175 144.711 79.775 143.711 79.875 143.111C79.875 143.011 79.975 143.011 79.975 143.011C81.975 143.011 84.875 142.011 86.175 139.211C87.275 136.711 87.775 134.311 87.875 133.911C87.875 133.911 87.875 133.811 87.975 133.811L92.475 130.911C92.575 130.911 92.675 130.911 92.675 131.011C92.975 131.811 93.375 132.811 94.175 133.011C94.275 133.011 94.275 133.111 94.275 133.211C94.175 133.611 93.775 135.111 93.275 136.311C93.075 136.711 93.575 137.111 93.975 136.911C96.875 134.811 102.775 129.311 100.075 123.511C109.575 116.011 115.475 106.811 116.375 101.211C116.475 100.411 115.875 99.7114 115.175 99.7114C109.075 99.5114 105.775 97.9114 106.275 92.3114C106.275 92.2114 106.375 92.2114 106.475 92.2114C107.975 92.6114 121.675 96.3114 130.875 93.6114C131.475 93.4114 131.975 93.7114 132.275 94.3114C133.275 96.2114 135.375 100.411 135.875 102.911C136.675 106.111 136.075 107.711 135.975 107.811C135.475 108.511 134.475 109.311 131.875 110.911C125.375 115.111 125.975 120.511 131.975 126.611C132.275 126.911 132.775 126.611 132.675 126.211C132.375 124.911 131.875 123.211 131.875 122.511C131.875 122.411 131.975 122.411 132.075 122.411C132.975 122.611 133.675 122.311 134.175 122.111C134.275 122.111 134.375 122.111 134.375 122.211C134.475 123.011 135.175 126.211 139.775 128.311C139.975 128.411 140.275 128.211 140.175 127.911C139.775 127.011 139.175 125.311 139.175 124.611C139.175 124.511 139.275 124.411 139.275 124.411C140.275 124.411 143.975 124.411 144.775 119.511C144.775 119.411 144.875 119.411 144.975 119.411C145.875 119.711 150.775 121.311 153.775 117.411C153.875 117.211 153.775 116.911 153.575 117.011C152.775 117.211 151.375 117.511 150.675 117.211C150.575 117.211 150.575 117.111 150.575 117.011C151.075 116.211 153.375 111.511 147.675 106.511C147.675 106.511 147.575 106.411 147.675 106.311C151.375 94.9114 150.575 82.3114 146.475 74.8114C146.175 74.2114 145.475 73.9114 144.875 74.1114C137.775 76.7114 126.175 77.7114 124.675 71.4114C124.675 71.3114 124.775 71.2114 124.875 71.2114C125.875 71.3114 130.175 72.1114 134.775 71.6114C137.575 71.3114 141.775 70.9114 145.975 69.6114C150.175 68.3114 153.575 66.7114 155.175 62.4114C156.275 59.4114 156.275 53.2114 152.875 48.7114C152.875 48.6114 152.875 48.6114 152.875 48.5114L157.475 44.0114ZM10.575 32.1114C12.875 33.6114 15.375 34.2114 17.475 34.7114C17.475 34.7114 16.675 41.2114 16.575 41.2114C16.275 41.0114 15.875 40.8114 15.575 40.7114C14.675 40.2114 13.775 39.8114 12.875 39.4114C12.375 39.2114 11.875 39.0114 11.275 38.9114C10.975 38.8114 10.675 38.8114 10.275 38.8114L10.575 32.1114ZM9.47499 24.2114C10.275 20.7114 13.675 19.9114 14.975 19.5114C17.875 18.7114 20.675 19.0114 23.075 19.9114C25.475 20.8114 29.175 20.1114 31.075 19.4114C33.075 18.6114 34.575 18.2114 35.575 18.6114C36.975 19.1114 38.075 19.2114 38.875 19.2114C40.375 19.2114 42.575 18.5114 42.775 18.5114C42.775 18.5114 40.375 20.5114 38.775 20.5114C36.375 20.4114 34.675 22.9114 33.975 24.2114C33.275 25.5114 31.975 26.3114 29.075 26.4114C25.275 26.5114 25.075 29.5114 24.675 30.8114C24.375 32.1114 23.075 32.8114 20.375 32.5114C15.975 31.9114 14.475 31.1114 12.575 30.2114C10.075 28.8114 8.97499 26.5114 9.47499 24.2114ZM4.77501 46.9114C5.37501 45.1114 7.57499 45.6114 8.87499 45.9114C9.17499 46.0114 9.37501 45.7114 9.27501 45.4114C8.87501 44.6114 8.575 43.3114 9.075 42.5114C9.975 41.1114 12.775 42.6114 14.075 43.2114C15.375 43.8114 18.275 45.4114 17.575 47.1114C17.275 48.1114 16.275 48.5114 15.575 48.5114C15.275 48.5114 15.175 48.9114 15.375 49.1114C16.075 49.9114 17.175 51.3114 16.675 52.6114C16.175 53.9114 14.275 53.7114 13.175 53.6114C12.875 53.6114 12.675 54.0114 12.875 54.2114C13.575 55.0114 14.475 56.3114 14.075 57.5114C13.575 59.5114 10.475 58.1114 8.87499 57.4114C7.27499 56.7114 5.275 55.3114 5.575 53.9114C5.775 53.0114 6.97501 52.4114 7.77501 52.1114C8.07501 52.0114 8.07499 51.6114 7.87499 51.4114C6.67499 50.5114 4.27501 48.6114 4.77501 46.9114ZM8.87499 88.6114C8.27499 88.6114 8.375 84.3114 8.575 77.6114C8.775 70.5114 9.27499 62.2114 9.37499 60.4114C10.075 60.7114 10.775 60.9114 11.675 61.1114C12.175 61.2114 12.775 61.3114 13.375 61.3114C13.575 61.3114 13.475 61.3114 13.675 61.3114C13.275 63.2114 12.975 65.8114 12.575 68.8114C12.275 71.0114 11.675 74.5114 11.175 77.8114C10.375 83.3114 9.27499 88.6114 8.87499 88.6114ZM41.775 83.1114C40.675 81.5114 39.875 80.0114 39.275 78.4114C39.075 77.8114 38.875 76.9114 38.575 76.1114C38.475 75.8114 38.175 75.7114 37.975 75.9114C37.075 76.8114 36.375 77.7114 35.675 79.0114C35.675 79.1114 35.575 79.1114 35.575 79.2114C34.875 80.5114 34.375 81.9114 33.875 83.5114C32.675 82.5114 31.275 81.1114 29.975 79.6114C29.975 79.4114 30.075 79.2114 30.075 79.0114C30.175 78.6114 30.175 78.2114 30.275 77.8114C30.475 77.0114 30.675 76.2114 30.875 75.4114C30.975 75.2114 30.875 75.0114 30.775 74.9114C30.575 74.7114 30.275 74.7114 30.175 74.9114C29.575 75.5114 29.075 76.3114 28.575 77.0114C28.475 77.2114 28.375 77.4114 28.275 77.5114C27.575 76.6114 26.875 75.6114 26.175 74.6114C26.175 74.4114 26.175 74.3114 26.275 74.1114C26.275 73.7114 26.375 73.4114 26.475 73.0114C26.575 72.2114 26.775 71.5114 27.075 70.7114C27.075 70.5114 27.075 70.4114 26.975 70.2114C26.775 70.0114 26.475 70.0114 26.375 70.2114C25.775 70.8114 25.275 71.4114 24.775 72.2114C24.775 72.2114 24.675 72.3114 24.675 72.4114C20.775 66.7114 17.475 60.8114 16.475 59.1114C16.575 58.9114 16.575 58.8114 16.675 58.6114C16.875 57.8114 16.875 57.1114 16.575 56.4114C16.575 56.3114 16.475 56.3114 16.475 56.2114C16.675 56.2114 16.875 56.1114 17.175 56.1114C17.775 55.9114 18.275 55.5114 18.675 55.0114C19.075 54.5114 19.275 53.9114 19.375 53.4114C19.475 52.8114 19.575 52.1114 19.375 51.5114C19.275 50.9114 18.975 50.5114 18.675 50.1114C19.275 49.7114 19.675 49.2114 19.975 48.6114C20.075 48.4114 20.175 48.3114 20.175 48.1114C20.275 48.0114 20.275 47.8114 20.375 47.6114C20.875 48.0114 21.275 48.4114 21.575 49.2114C22.575 51.3114 21.375 54.6114 21.275 55.9114C21.075 57.2114 21.675 59.0114 22.575 60.2114C23.475 61.4114 31.075 65.8114 38.275 68.8114L39.375 69.3114C40.975 63.7114 45.375 59.0114 48.575 55.6114C49.275 54.8114 49.975 54.0114 50.575 53.3114L51.275 52.4114L50.275 51.4114C48.975 49.9114 47.375 49.5114 46.475 49.5114C44.875 49.5114 41.875 50.7114 41.875 50.7114C40.375 49.1114 42.675 47.1114 43.675 46.1114C44.975 46.1114 46.675 46.0114 47.375 45.9114C47.675 45.9114 48.075 45.9114 48.475 45.8114C48.875 45.8114 49.175 45.3114 48.975 44.9114C48.575 44.2114 48.075 43.2114 47.575 42.7114C46.875 41.8114 45.075 42.6114 42.175 42.3114C37.975 41.8114 36.375 34.8114 36.375 34.8114C37.475 35.0114 39.575 34.7114 41.275 33.5114C43.075 32.4114 43.875 29.8114 46.075 28.3114C48.175 26.8114 53.075 26.4114 56.675 26.1114C60.075 25.9114 60.875 23.6114 61.675 22.0114C61.775 21.8114 61.975 21.7114 62.175 21.8114C66.475 24.6114 65.775 28.2114 64.675 29.8114C64.475 30.1114 64.075 30.6114 63.775 31.0114C63.675 31.1114 63.675 31.3114 63.875 31.4114C64.575 31.8114 64.975 32.2114 65.375 33.4114C66.075 35.4114 65.775 37.6114 65.075 38.9114C64.175 40.7114 62.475 41.4114 60.975 42.0114C60.775 42.1114 60.375 42.2114 59.975 42.4114C58.975 42.9114 59.175 44.5114 60.275 44.5114C60.875 44.5114 61.075 44.6114 61.275 44.5114C64.975 44.6114 67.775 43.3114 69.475 42.4114C70.575 44.5114 72.975 49.2114 74.075 54.9114C73.675 54.5114 73.175 54.1114 72.775 53.8114C71.775 53.1114 70.675 52.5114 69.575 52.0114C68.475 51.6114 67.275 51.2114 66.175 51.1114C65.875 51.1114 65.575 51.2114 65.375 51.6114C65.175 52.0114 65.375 52.4114 65.775 52.6114C66.775 53.0114 67.775 53.5114 68.675 54.1114C69.575 54.6114 70.475 55.3114 71.275 55.9114C72.075 56.6114 72.775 57.4114 73.375 58.2114C73.675 58.6114 73.975 59.1114 74.275 59.5114L74.675 60.2114C74.675 60.2114 74.675 60.2114 74.675 60.3114C74.675 63.2114 74.275 66.3114 73.075 69.4114C72.975 69.6114 72.975 69.7114 72.875 69.9114C72.775 69.6114 72.675 69.3114 72.575 69.0114C72.075 67.6114 71.375 66.2114 70.475 65.0114C69.575 63.8114 68.475 62.7114 67.175 61.9114C65.875 61.1114 64.575 60.6114 63.175 60.3114C62.875 60.2114 62.475 60.4114 62.375 60.8114C62.175 61.2114 62.375 61.6114 62.775 61.8114C63.975 62.3114 65.075 63.0114 66.075 63.8114C67.075 64.6114 67.875 65.5114 68.575 66.6114C69.275 67.7114 69.775 68.9114 70.175 70.1114C70.375 70.7114 70.575 71.4114 70.775 72.0114C70.875 72.3114 70.975 72.6114 70.975 73.0114C70.975 73.1114 71.075 73.3114 71.175 73.4114C69.875 75.3114 68.275 77.4114 66.275 79.4114C66.275 79.1114 66.175 78.9114 66.175 78.6114C66.075 78.2114 66.075 77.8114 65.975 77.4114C65.575 75.8114 65.075 74.2114 64.275 72.7114C63.475 71.2114 62.475 69.9114 61.175 68.8114C59.975 67.7114 58.575 66.9114 57.075 66.4114C56.775 66.3114 56.375 66.4114 56.175 66.7114C55.975 67.1114 56.075 67.5114 56.475 67.7114C57.675 68.5114 58.875 69.3114 59.775 70.4114C60.675 71.4114 61.475 72.6114 62.075 73.9114C62.675 75.2114 63.075 76.6114 63.375 78.0114C63.475 78.4114 63.475 78.7114 63.575 79.1114C63.675 79.5114 63.675 79.8114 63.675 80.2114C63.675 80.6114 63.775 80.9114 63.775 81.3114C63.775 81.4114 63.875 81.6114 63.875 81.7114C62.275 83.1114 60.575 84.5114 58.775 85.8114C58.675 85.8114 58.575 85.7114 58.475 85.6114C58.175 85.4114 57.875 85.2114 57.575 85.0114C57.275 84.8114 56.975 84.6114 56.675 84.4114C56.375 84.2114 56.075 84.0114 55.875 83.7114C54.775 82.8114 53.775 81.8114 52.975 80.7114C52.175 79.6114 51.475 78.4114 51.075 77.0114C50.675 75.7114 50.475 74.2114 50.475 72.7114C50.475 72.3114 50.275 72.0114 49.875 72.0114C49.475 71.9114 49.075 72.2114 48.975 72.6114C48.675 74.2114 48.675 75.9114 48.875 77.6114C49.175 79.3114 49.775 80.9114 50.675 82.4114C51.575 83.9114 52.575 85.1114 53.775 86.3114C54.075 86.6114 54.375 86.9114 54.675 87.1114C54.975 87.3114 55.175 87.6114 55.475 87.8114C53.375 89.0114 51.275 90.0114 49.075 90.6114L48.775 90.3114C47.975 89.6114 47.175 89.0114 46.475 88.3114C44.475 86.4114 42.975 84.7114 41.775 83.1114ZM112.875 102.111C111.875 104.811 110.475 107.311 108.975 109.611C108.575 108.911 108.075 108.311 107.575 107.811C107.075 107.311 106.475 106.811 105.975 106.411C105.375 106.011 104.875 105.611 104.175 105.311C103.875 105.211 103.575 105.211 103.375 105.511C103.175 105.811 103.175 106.311 103.475 106.511C103.875 106.911 104.375 107.311 104.775 107.811C105.175 108.311 105.575 108.811 105.875 109.311C106.175 109.811 106.475 110.311 106.575 110.911C106.775 111.411 106.875 112.011 106.875 112.511C105.975 113.611 104.975 114.711 104.075 115.811C103.975 115.711 103.975 115.511 103.875 115.411C103.475 114.711 103.075 114.111 102.575 113.511C102.075 112.911 101.575 112.511 100.975 112.011C100.375 111.611 99.875 111.211 99.175 110.811C98.875 110.711 98.575 110.711 98.375 111.011C98.075 111.311 98.175 111.811 98.475 112.011C98.875 112.411 99.375 112.911 99.675 113.411C100.075 113.911 100.375 114.411 100.675 114.911C100.975 115.411 101.175 116.011 101.275 116.511C101.375 117.011 101.475 117.611 101.475 118.111C101.475 118.211 101.475 118.211 101.475 118.311C99.975 119.811 98.375 121.111 97.075 122.211C97.075 122.211 96.975 122.311 97.075 122.411C98.975 127.711 95.775 132.611 94.075 127.811C93.675 126.711 93.375 126.911 92.575 127.511C91.875 128.011 85.875 132.211 85.175 132.711L85.075 132.811C85.775 136.811 81.875 140.311 79.275 140.111C77.075 139.911 75.975 137.311 76.575 133.811C76.675 133.311 76.175 133.011 75.775 133.311C73.475 135.211 69.275 137.711 66.575 133.811C65.275 132.011 67.775 128.911 69.075 127.511C69.375 127.211 69.175 126.611 68.775 126.511C66.675 126.211 62.575 125.311 64.275 123.211C65.775 121.311 68.775 121.611 70.875 121.711C73.275 121.911 78.375 122.611 82.575 127.311C82.575 127.311 82.675 127.411 82.775 127.311C83.475 126.911 87.375 124.511 89.075 122.511C90.975 120.311 93.875 118.611 94.075 108.211C94.175 103.311 89.775 99.3114 87.175 95.4114C84.575 91.6114 83.075 88.3114 84.975 82.0114C84.975 81.9114 85.075 81.9114 85.075 81.9114C85.375 81.9114 86.775 81.8114 90.875 81.8114H90.975C91.475 82.4114 96.275 87.9114 102.875 90.6114C102.975 90.6114 102.975 90.7114 102.975 90.7114C102.775 91.9114 102.075 102.111 112.875 102.111ZM124.675 77.3114C128.875 80.0114 136.675 79.6114 144.175 77.4114C144.275 77.4114 144.275 77.4114 144.375 77.5114C145.375 79.9114 146.175 82.3114 146.675 84.9114C145.975 84.5114 145.175 84.1114 144.475 83.8114C143.675 83.5114 142.875 83.2114 142.075 83.1114C141.275 82.9114 140.475 82.8114 139.575 82.8114C139.375 82.8114 139.175 82.9114 139.175 83.1114C139.075 83.3114 139.275 83.6114 139.475 83.7114C140.175 83.9114 140.975 84.2114 141.675 84.5114C142.375 84.8114 143.075 85.2114 143.675 85.6114C144.275 86.0114 144.975 86.5114 145.475 87.0114C146.075 87.5114 146.575 88.1114 147.175 88.5114C147.275 90.0114 147.375 91.5114 147.275 93.0114C147.075 92.9114 146.875 92.8114 146.675 92.6114C145.975 92.2114 145.175 91.8114 144.375 91.5114C143.575 91.2114 142.775 90.9114 141.975 90.7114C141.175 90.5114 140.375 90.4114 139.475 90.4114C139.275 90.4114 139.075 90.5114 139.075 90.7114C138.975 90.9114 139.175 91.2114 139.375 91.3114C140.075 91.5114 140.875 91.8114 141.575 92.1114C142.275 92.4114 142.975 92.8114 143.575 93.2114C144.175 93.6114 144.875 94.1114 145.375 94.6114C145.975 95.1114 146.475 95.6114 146.975 96.0114C146.575 99.3114 145.775 102.711 144.675 106.211C144.575 106.511 144.475 106.811 144.275 107.111C148.975 109.611 150.075 116.111 146.475 116.811C145.375 117.011 144.275 116.711 143.575 116.211C143.275 116.011 142.975 116.111 142.875 116.511C142.475 118.411 141.175 122.011 138.575 122.011C136.475 122.011 135.775 120.311 135.775 118.711C135.775 118.211 135.175 118.011 134.875 118.411C133.575 120.011 132.275 120.611 131.175 119.911C129.775 118.911 129.475 117.411 130.075 116.311C131.675 113.011 136.275 111.811 138.175 109.311C140.475 105.211 136.675 96.9114 133.875 91.0114C133.575 90.4114 132.875 90.1114 132.275 90.3114C129.675 91.1114 122.775 92.6114 114.375 91.0114C103.075 88.8114 96.875 84.6114 93.175 79.8114C93.175 79.8114 93.175 79.7114 93.075 79.7114C92.875 79.4114 92.575 79.1114 92.375 78.7114C91.375 77.3114 90.775 76.2114 90.175 75.3114C90.075 75.1114 89.875 75.0114 89.775 75.0114C88.675 74.8114 89.275 77.9114 89.475 78.7114C89.475 78.8114 89.475 78.8114 89.375 78.9114C87.075 79.4114 84.475 79.0114 81.475 79.1114C81.475 79.1114 81.375 79.1114 81.375 79.2114C77.075 84.6114 75.675 88.4114 63.475 90.6114C61.775 90.9114 61.875 92.0114 62.675 92.6114C63.375 93.1114 64.375 94.7114 64.675 96.8114C64.775 97.7114 64.075 98.9114 60.275 101.511C60.175 101.311 60.075 101.111 59.975 100.811C59.575 100.111 59.175 99.4114 58.675 98.9114C58.175 98.3114 57.675 97.8114 57.075 97.4114C56.475 97.0114 55.875 96.6114 55.175 96.3114C54.875 96.2114 54.575 96.3114 54.375 96.5114C54.175 96.8114 54.175 97.3114 54.475 97.5114H54.575C54.975 97.8114 55.475 98.3114 55.875 98.7114C56.275 99.2114 56.575 99.7114 56.875 100.211C57.175 100.711 57.375 101.211 57.475 101.811C57.575 102.211 57.575 102.711 57.575 103.111C55.975 104.111 54.475 105.011 53.075 105.611C52.975 105.211 52.875 104.911 52.775 104.511C52.475 103.811 52.075 103.111 51.675 102.411C51.275 101.811 50.675 101.211 50.175 100.811C49.575 100.311 49.075 99.9114 48.375 99.6114C48.075 99.5114 47.775 99.5114 47.575 99.8114C47.375 100.111 47.375 100.611 47.675 100.811L47.775 100.911C48.175 101.311 48.575 101.811 48.975 102.211C49.275 102.711 49.575 103.211 49.875 103.811C50.075 104.311 50.275 104.911 50.375 105.411C50.475 105.911 50.475 106.411 50.375 106.811C44.775 108.811 41.275 107.911 39.475 106.811C38.875 106.311 38.475 106.111 38.175 105.911C37.675 105.611 37.175 105.811 36.875 106.211C36.575 106.611 36.575 107.211 36.875 107.511C37.075 107.811 37.375 108.311 37.675 108.711C37.975 109.211 38.175 109.811 38.175 110.411C38.175 112.311 36.475 112.911 34.375 112.911C32.275 112.911 30.675 112.311 30.675 110.411V109.411C30.675 108.911 30.275 108.411 29.775 108.511C29.375 108.611 28.975 108.911 28.775 109.211L28.175 110.311C28.075 110.511 24.775 118.011 21.375 116.311C19.075 115.211 20.175 112.511 21.375 110.511C21.675 109.911 21.175 109.311 20.575 109.511C19.475 109.911 18.275 110.111 17.275 109.511C15.175 108.311 14.475 106.011 15.175 104.511C15.875 103.211 16.775 101.711 18.275 100.511C18.575 100.211 18.575 99.7114 18.275 99.4114C17.475 98.6114 17.175 98.0114 17.575 97.1114C18.075 96.0114 19.175 95.6114 21.275 95.9114C23.675 96.3114 24.975 99.0114 25.775 102.011C26.075 103.111 27.075 103.711 28.075 103.511C36.275 101.511 42.375 95.6114 47.175 91.6114C47.375 91.7114 47.475 91.8114 47.575 92.0114L48.875 93.1114L49.475 92.9114C61.675 89.5114 72.975 77.3114 75.775 70.1114C76.675 67.7114 77.275 65.3114 77.475 62.9114C94.475 62.4114 94.175 61.9114 101.775 60.6114C107.675 59.5114 115.575 63.0114 119.375 66.9114C121.775 69.9114 121.675 75.3114 124.675 77.3114ZM153.275 58.3114C152.975 62.7114 150.875 65.6114 146.175 67.0114C141.475 68.3114 132.875 70.4114 123.875 68.9114C123.275 68.8114 122.475 66.8114 122.275 66.1114C122.275 66.0114 122.275 65.9114 122.375 65.9114C130.575 67.3114 142.675 66.0114 146.375 63.6114C151.275 60.5114 149.675 51.8114 143.175 49.3114C133.575 45.6114 113.175 50.5114 99.275 50.7114C94.175 50.8114 88.675 50.7114 82.675 45.4114C78.775 41.6114 78.475 35.3114 81.175 30.9114C83.775 27.0114 88.575 25.5114 92.975 25.9114C104.375 26.8114 107.675 19.3114 117.375 17.2114C126.775 15.2114 131.075 18.0114 132.275 19.0114C132.375 19.1114 132.275 19.3114 132.175 19.3114C130.475 19.0114 124.675 18.3114 117.275 21.4114C114.575 22.5114 112.075 24.5114 109.975 26.1114C109.875 26.2114 109.875 26.3114 110.075 26.4114C114.975 27.6114 115.575 28.7114 120.975 29.1114C133.775 30.1114 136.875 24.6114 143.475 26.0114C148.475 27.0114 150.875 30.1114 151.475 31.0114C151.575 31.1114 151.475 31.2114 151.375 31.2114C131.575 26.5114 133.575 35.1114 122.975 35.9114C116.575 36.4114 107.275 30.9114 104.575 31.3114C104.475 31.3114 104.475 31.4114 104.475 31.4114C104.375 32.4114 103.475 40.0114 97.375 38.3114C97.275 38.3114 97.275 38.1114 97.275 38.0114C99.575 35.8114 98.675 32.4114 95.375 31.4114C93.275 30.8114 90.575 30.9114 88.275 31.8114C84.575 33.3114 83.175 38.4114 85.375 41.7114C88.675 46.6114 93.875 47.7114 101.175 47.2114C108.775 46.7114 113.775 46.1114 124.475 44.7114C127.575 44.3114 133.675 43.6114 139.475 43.4114C139.075 44.0114 138.775 44.6114 138.475 45.3114C138.375 45.4114 138.375 45.6114 138.475 45.8114C138.575 46.0114 138.875 46.1114 139.075 46.0114C139.675 45.6114 140.275 45.2114 140.875 44.8114L141.775 44.2114C142.075 44.0114 142.375 43.8114 142.575 43.5114V43.4114C143.775 43.4114 144.875 43.4114 145.975 43.5114L145.875 43.7114C145.375 44.4114 144.975 45.2114 144.575 46.0114C144.475 46.2114 144.475 46.4114 144.575 46.5114C144.775 46.7114 144.975 46.7114 145.175 46.6114C145.775 46.1114 146.475 45.6114 147.075 45.2114L148.075 44.5114C148.375 44.3114 148.675 44.1114 148.975 43.8114C150.875 44.0114 152.375 44.4114 153.075 45.1114L148.875 48.6114C148.375 48.5114 153.675 52.2114 153.275 58.3114Z" fill="#EE3124"/>
</svg>
